<svg width="223" height="58" viewBox="0 0 223 58" fill="none" xmlns="http://www.w3.org/2000/svg">
<path d="M44.9018 29.8751C44.9018 35.8943 40.0121 40.7502 33.9509 40.7502C27.8897 40.7502 23 35.8943 23 29.8751C23 23.8559 27.8897 19 33.9509 19C40.0121 19 44.9018 23.8559 44.9018 29.8751Z" fill="#1ABCFE"/>
<path d="M126.818 58.0002C132.252 58.0002 136.636 53.6466 136.636 48.2501L136.636 38.5L126.818 38.5C121.384 38.5 117 42.8535 117 48.2501C117 53.6466 121.384 58.0002 126.818 58.0002Z" fill="#0ACF83"/>
<path d="M117 28.7501C117 23.3535 121.384 19 126.818 19L136.636 19L136.636 38.5002L126.818 38.5002C121.384 38.5002 117 34.1466 117 28.7501Z" fill="#A259FF"/>
<path d="M10.4116 41C8.52788 41 6.85056 40.6806 5.37969 40.0418C3.90881 39.403 2.74759 38.5343 1.89604 37.4355C1.04448 36.3113 0.567087 35.0592 0.463867 33.6794H7.00539C7.08281 34.4204 7.43117 35.0209 8.05049 35.4808C8.6698 35.9408 9.43105 36.1707 10.3342 36.1707C11.16 36.1707 11.7922 36.0174 12.2309 35.7108C12.6954 35.3786 12.9276 34.957 12.9276 34.446C12.9276 33.8328 12.605 33.3856 11.9599 33.1045C11.3148 32.7979 10.2697 32.4657 8.82463 32.108C7.27634 31.7503 5.9861 31.3798 4.95391 30.9965C3.92171 30.5877 3.03145 29.9617 2.28311 29.1185C1.53477 28.2497 1.1606 27.0871 1.1606 25.6307C1.1606 24.4042 1.49606 23.2927 2.16699 22.2962C2.86372 21.2741 3.8701 20.4692 5.18615 19.8815C6.528 19.2938 8.115 19 9.94714 19C12.6566 19 14.7855 19.6643 16.3338 20.993C17.9079 22.3217 18.8111 24.0848 19.0433 26.2822H12.9276C12.8244 25.5412 12.4889 24.9535 11.9212 24.5192C11.3793 24.0848 10.6568 23.8676 9.75361 23.8676C8.97946 23.8676 8.38595 24.0209 7.97307 24.3275C7.5602 24.6086 7.35376 25.0046 7.35376 25.5157C7.35376 26.1289 7.67632 26.5889 8.32144 26.8955C8.99236 27.2021 10.0246 27.5087 11.418 27.8153C13.0179 28.2242 14.3211 28.633 15.3274 29.0418C16.3338 29.4251 17.2112 30.0639 17.9595 30.9582C18.7337 31.8269 19.1337 33.0023 19.1595 34.4843C19.1595 35.7364 18.7982 36.8606 18.0757 37.8571C17.3789 38.8281 16.3596 39.5947 15.0178 40.1568C13.7017 40.7189 12.1664 41 10.4116 41Z" fill="#006E90"/>
<path d="M75.4141 19.0767C78.0978 19.0767 80.2267 19.8815 81.8008 21.4913C83.4007 23.101 84.2006 25.3368 84.2006 28.1986V40.6934H77.6204V29.0801C77.6204 27.7003 77.2462 26.64 76.4979 25.899C75.7754 25.1324 74.769 24.7491 73.4787 24.7491C72.1885 24.7491 71.1692 25.1324 70.4209 25.899C69.6983 26.64 69.3371 27.7003 69.3371 29.0801V40.6934H62.7568V29.0801C62.7568 27.7003 62.3827 26.64 61.6343 25.899C60.9118 25.1324 59.9054 24.7491 58.6151 24.7491C57.3249 24.7491 56.3056 25.1324 55.5573 25.899C54.8347 26.64 54.4735 27.7003 54.4735 29.0801V40.6934H47.8545V19.3066H54.4735V21.9895C55.1444 21.0952 56.0218 20.3926 57.1056 19.8815C58.1894 19.3449 59.4151 19.0767 60.7828 19.0767C62.4085 19.0767 63.8535 19.4216 65.118 20.1115C66.4082 20.8014 67.4146 21.7851 68.1371 23.0627C68.8855 21.8873 69.9048 20.9292 71.195 20.1882C72.4852 19.4472 73.8916 19.0767 75.4141 19.0767Z" fill="#006E90"/>
<path d="M87.5137 29.9617C87.5137 27.7642 87.9266 25.8351 88.7524 24.1742C89.6039 22.5134 90.7522 21.2358 92.1973 20.3415C93.6424 19.4472 95.2552 19 97.0357 19C98.5582 19 99.8871 19.3066 101.023 19.9199C102.184 20.5331 103.074 21.338 103.693 22.3345V19.3066H110.312V40.6934H103.693V37.6655C103.048 38.662 102.145 39.4669 100.984 40.0801C99.8484 40.6934 98.5195 41 96.997 41C95.2423 41 93.6424 40.5528 92.1973 39.6585C90.7522 38.7387 89.6039 37.4483 88.7524 35.7875C87.9266 34.101 87.5137 32.1591 87.5137 29.9617ZM103.693 30C103.693 28.3647 103.229 27.0743 102.3 26.1289C101.397 25.1835 100.287 24.7108 98.9711 24.7108C97.655 24.7108 96.5325 25.1835 95.6036 26.1289C94.7004 27.0488 94.2488 28.3264 94.2488 29.9617C94.2488 31.597 94.7004 32.9001 95.6036 33.8711C96.5325 34.8165 97.655 35.2892 98.9711 35.2892C100.287 35.2892 101.397 34.8165 102.3 33.8711C103.229 32.9257 103.693 31.6353 103.693 30Z" fill="#006E90"/>
<path d="M151.203 41C149.087 41 147.178 40.5528 145.475 39.6585C143.797 38.7642 142.469 37.4866 141.488 35.8258C140.533 34.1649 140.056 32.223 140.056 30C140.056 27.8026 140.546 25.8734 141.527 24.2125C142.507 22.5261 143.849 21.2358 145.552 20.3415C147.255 19.4472 149.165 19 151.281 19C153.397 19 155.306 19.4472 157.01 20.3415C158.713 21.2358 160.055 22.5261 161.035 24.2125C162.016 25.8734 162.506 27.8026 162.506 30C162.506 32.1974 162.003 34.1394 160.996 35.8258C160.016 37.4866 158.661 38.7642 156.932 39.6585C155.229 40.5528 153.319 41 151.203 41ZM151.203 35.3275C152.468 35.3275 153.539 34.8676 154.416 33.9477C155.319 33.0279 155.771 31.712 155.771 30C155.771 28.288 155.332 26.9721 154.455 26.0523C153.603 25.1324 152.545 24.6725 151.281 24.6725C149.991 24.6725 148.92 25.1324 148.068 26.0523C147.217 26.9466 146.791 28.2625 146.791 30C146.791 31.712 147.204 33.0279 148.029 33.9477C148.881 34.8676 149.939 35.3275 151.203 35.3275Z" fill="#FF6250"/>
<path d="M172.636 22.8711C173.411 21.6957 174.378 20.7758 175.539 20.1115C176.701 19.4216 177.991 19.0767 179.41 19.0767V26.0139H177.591C175.939 26.0139 174.701 26.3717 173.875 27.0871C173.049 27.777 172.636 29.0035 172.636 30.7666V40.6934H166.017V19.3066H172.636V22.8711Z" fill="#FF6250"/>
<path d="M181.258 29.9617C181.258 27.7642 181.671 25.8351 182.496 24.1742C183.348 22.5134 184.496 21.2358 185.941 20.3415C187.386 19.4472 188.999 19 190.78 19C192.302 19 193.631 19.3066 194.767 19.9199C195.928 20.5331 196.818 21.338 197.437 22.3345V19.3066H204.056V40.6934H197.437V37.6655C196.792 38.662 195.889 39.4669 194.728 40.0801C193.593 40.6934 192.264 41 190.741 41C188.986 41 187.386 40.5528 185.941 39.6585C184.496 38.7387 183.348 37.4483 182.496 35.7875C181.671 34.101 181.258 32.1591 181.258 29.9617ZM197.437 30C197.437 28.3647 196.973 27.0743 196.044 26.1289C195.141 25.1835 194.031 24.7108 192.715 24.7108C191.399 24.7108 190.277 25.1835 189.348 26.1289C188.444 27.0488 187.993 28.3264 187.993 29.9617C187.993 31.597 188.444 32.9001 189.348 33.8711C190.277 34.8165 191.399 35.2892 192.715 35.2892C194.031 35.2892 195.141 34.8165 196.044 33.8711C196.973 32.9257 197.437 31.6353 197.437 30Z" fill="#FF6250"/>
<path d="M215.464 19.3066V40.6934H208.845V19.3066H215.464Z" fill="#FF6250"/>
<g filter="url(#filter0_dd_942_676)">
<path d="M211.092 16.7684L205 3.84375L218.37 8.02012C218.37 8.02012 213.096 10.3647 212.843 10.6802C212.59 10.9957 211.092 16.7684 211.092 16.7684Z" fill="#333333"/>
<path d="M211.092 16.7684L205 3.84375L218.37 8.02012C218.37 8.02012 213.096 10.3647 212.843 10.6802C212.59 10.9957 211.092 16.7684 211.092 16.7684Z" stroke="white" stroke-linejoin="round"/>
</g>
<defs>
<filter id="filter0_dd_942_676" x="200.5" y="0.34375" width="22.3701" height="21.9238" filterUnits="userSpaceOnUse" color-interpolation-filters="sRGB">
<feFlood flood-opacity="0" result="BackgroundImageFix"/>
<feColorMatrix in="SourceAlpha" type="matrix" values="0 0 0 0 0 0 0 0 0 0 0 0 0 0 0 0 0 0 127 0" result="hardAlpha"/>
<feOffset dy="1"/>
<feGaussianBlur stdDeviation="2"/>
<feComposite in2="hardAlpha" operator="out"/>
<feColorMatrix type="matrix" values="0 0 0 0 0.0470588 0 0 0 0 0.0470588 0 0 0 0 0.0509804 0 0 0 0.05 0"/>
<feBlend mode="normal" in2="BackgroundImageFix" result="effect1_dropShadow_942_676"/>
<feColorMatrix in="SourceAlpha" type="matrix" values="0 0 0 0 0 0 0 0 0 0 0 0 0 0 0 0 0 0 127 0" result="hardAlpha"/>
<feOffset dy="1"/>
<feGaussianBlur stdDeviation="2"/>
<feComposite in2="hardAlpha" operator="out"/>
<feColorMatrix type="matrix" values="0 0 0 0 0.0470588 0 0 0 0 0.0470588 0 0 0 0 0.0509804 0 0 0 0.1 0"/>
<feBlend mode="normal" in2="effect1_dropShadow_942_676" result="effect2_dropShadow_942_676"/>
<feBlend mode="normal" in="SourceGraphic" in2="effect2_dropShadow_942_676" result="shape"/>
</filter>
</defs>
</svg>
