<svg width="160" height="41" viewBox="0 0 160 41" fill="none" xmlns="http://www.w3.org/2000/svg">
<path d="M110.234 38.1241C109.857 38.1241 109.668 37.9526 109.668 37.6095C109.668 37.4037 109.754 37.215 109.925 37.0434C111.057 35.7055 112.035 34.4876 112.859 33.3898C113.682 32.2576 114.385 31.1427 114.968 30.0448C115.586 28.9127 116.135 27.6948 116.615 26.3912C117.13 25.0875 117.627 23.578 118.107 21.8626C118.348 21.0393 118.502 20.2159 118.571 19.3925C118.674 18.5349 118.725 17.6772 118.725 16.8195C118.725 13.8348 118.228 10.9359 117.233 8.12272C117.13 7.84827 116.924 7.43659 116.615 6.88767C116.306 6.33876 115.98 5.7727 115.637 5.18948C115.294 4.57196 114.986 4.05735 114.711 3.64567C114.471 3.19968 114.351 2.97669 114.351 2.97669C114.351 2.70223 114.471 2.49639 114.711 2.35916C114.986 2.22193 115.226 2.15332 115.432 2.15332C115.809 2.15332 116.135 2.32485 116.409 2.66792C117.919 4.48619 118.982 6.61322 119.6 9.04901C120.217 11.4505 120.526 13.8177 120.526 16.1505C120.526 17.2484 120.457 18.3462 120.32 19.444C120.217 20.5418 120.012 21.6225 119.703 22.686C119.566 23.1663 119.24 24.0068 118.725 25.2076C118.21 26.374 117.593 27.6948 116.872 29.17C116.152 30.6452 115.38 32.0689 114.557 33.4412C113.768 34.7792 112.996 35.8942 112.241 36.7861C111.486 37.6781 110.817 38.1241 110.234 38.1241Z" fill="#2F2D1B" stroke="#2F2D1B" stroke-width="3"/>
<path d="M105.962 17.7088C105.722 17.7088 105.482 17.623 105.242 17.4515C105.002 17.28 104.882 17.057 104.882 16.7825C104.882 16.508 104.985 16.1307 105.191 15.6504C105.431 15.1358 105.722 14.604 106.065 14.0551C106.408 13.5062 106.769 13.043 107.146 12.6657C107.523 12.2883 107.849 12.0996 108.124 12.0996C108.295 12.0996 108.415 12.1682 108.484 12.3055C108.553 12.4427 108.587 12.7171 108.587 12.7171C108.587 12.7171 108.45 13.09 108.381 13.3347C108.148 14.1608 108.398 14.9345 108.124 15.5177C107.884 16.1009 106.786 17.0398 106.786 17.0398C106.786 17.0398 106.374 17.7088 105.962 17.7088ZM103.132 29.9564C102.926 29.9564 102.686 29.8706 102.412 29.6991C102.137 29.5275 102 29.3217 102 29.0815C102 28.8071 102.103 28.4297 102.309 27.9494C102.549 27.4348 102.841 26.903 103.184 26.3541C103.561 25.7709 103.921 25.2906 104.264 24.9132C104.642 24.5359 104.985 24.3472 105.293 24.3472C105.465 24.3472 105.568 24.4158 105.602 24.553C105.671 24.6559 105.705 24.776 105.705 24.9132C105.705 25.0848 105.637 25.3078 105.499 25.5822C105.156 26.1998 104.865 26.8001 104.624 27.3833C104.384 27.9666 104.161 28.6012 103.955 29.2874C103.853 29.7334 103.578 29.9564 103.132 29.9564Z" fill="#2F2D1B" stroke="#2F2D1B" stroke-width="3"/>
<path d="M75.0993 37.5098C74.5161 37.5098 74.0873 37.2182 73.8128 36.635C73.5384 36.0861 73.3668 35.4514 73.2982 34.731C73.2296 34.0105 73.1953 33.4616 73.1953 33.0842C73.1953 31.7806 73.3154 30.4083 73.5555 28.9674C73.7957 27.4922 74.1044 26.1199 74.4818 24.8506C74.6534 24.2674 74.9621 23.4268 75.4081 22.329C75.8541 21.1969 76.3859 20.0476 77.0034 18.8812C77.6552 17.7147 78.3413 16.737 79.0618 15.9479C79.8165 15.1246 80.5713 14.7129 81.326 14.7129C81.9093 14.7129 82.5439 14.9702 83.2301 15.4848C83.9162 15.9994 84.2593 16.5655 84.2593 17.183C84.2593 17.4231 84.1735 17.629 84.002 17.8005C84.0363 17.7662 84.1221 17.7491 84.2593 17.7491C84.9111 17.7491 85.237 18.0921 85.237 18.7783C85.237 19.5673 85.117 20.5108 84.8768 21.6086C84.671 22.7064 84.448 23.8728 84.2078 25.1079C83.9677 26.3086 83.8476 27.4751 83.8476 28.6072C83.8476 29.0189 83.8819 29.5163 83.9505 30.0995C84.0191 30.6485 84.1735 31.1459 84.4137 31.5919C84.6881 32.0379 85.117 32.2609 85.7002 32.2609C86.2491 32.2609 86.8323 31.9693 87.4498 31.3861C88.0674 30.8028 88.6677 30.0824 89.2509 29.2247C89.8342 28.367 90.3831 27.5094 90.8977 26.6517C91.4123 25.794 91.8411 25.0736 92.1842 24.4904C92.5616 23.9071 92.8189 23.6155 92.9561 23.6155C93.1962 23.6155 93.3163 23.7699 93.3163 24.0787C93.3163 24.4904 93.1276 25.0907 92.7502 25.8798C92.4072 26.6345 91.944 27.4751 91.3608 28.4013C90.7776 29.2933 90.1258 30.1682 89.4053 31.0258C88.7192 31.8492 88.0159 32.5353 87.2955 33.0842C86.6093 33.5988 85.9918 33.8562 85.4429 33.8562C84.5509 33.8562 83.8648 33.4959 83.3845 32.7755C82.9385 32.0207 82.6297 31.1287 82.4582 30.0995C82.3209 29.0703 82.2523 28.1097 82.2523 27.2178C82.2523 26.909 82.2523 26.6174 82.2523 26.3429C82.2523 26.0685 82.2695 25.8283 82.3038 25.6225C82.098 26.1028 81.8063 26.8232 81.429 27.7838C81.0516 28.7101 80.6056 29.7393 80.091 30.8714C79.6107 31.9693 79.0789 33.0328 78.4957 34.062C77.9468 35.0569 77.3808 35.8803 76.7975 36.5321C76.2143 37.1839 75.6483 37.5098 75.0993 37.5098ZM75.511 35.3485C75.957 35.3485 76.4545 34.9368 77.0034 34.1134C77.5523 33.2901 78.1184 32.2437 78.7016 30.9744C79.3191 29.6707 79.9023 28.2813 80.4512 26.8061C81.0001 25.3309 81.4976 23.9415 81.9436 22.6378C82.4239 21.2998 82.8184 20.202 83.1272 19.3443C83.4359 18.4523 83.6418 17.972 83.7447 17.9034L83.4359 17.9549C83.1958 17.9549 83.0071 17.8348 82.8699 17.5947C82.7326 17.3202 82.5611 17.0629 82.3553 16.8228C82.1494 16.5826 81.8063 16.4625 81.326 16.4625C80.7085 16.4625 80.1082 16.8228 79.5249 17.5432C78.9417 18.2637 78.3757 19.1385 77.8267 20.1677C77.3121 21.1626 76.8662 22.1403 76.4888 23.1009C76.1457 24.0615 75.9056 24.782 75.7683 25.2623C75.0822 27.6294 74.7391 30.0652 74.7391 32.5696C74.7391 32.7069 74.7391 33.0156 74.7391 33.4959C74.7734 33.9419 74.842 34.3708 74.945 34.7824C75.0822 35.1598 75.2709 35.3485 75.511 35.3485Z" fill="#013B41" stroke="#013B41" stroke-width="2.5"/>
<path d="M49.2045 36.7886C48.8958 36.7886 48.6899 36.6857 48.587 36.4798C48.4841 36.274 48.4326 36.051 48.4326 35.8109V35.7079C48.4326 33.8554 48.5698 32.1229 48.8443 30.5104C49.1188 28.898 49.3761 27.2684 49.6162 25.6217C49.8907 23.9407 50.0279 22.1053 50.0279 20.1155C50.0279 19.5665 49.9936 18.9319 49.925 18.2114C49.8907 17.4567 49.7706 16.7191 49.5647 15.9986C49.3932 15.2782 49.1188 14.7121 48.7414 14.3004C48.6041 14.1632 48.5355 13.9917 48.5355 13.7858C48.5355 13.4771 48.6728 13.2026 48.9472 12.9625C49.2217 12.7223 49.5133 12.5851 49.822 12.5508L50.2852 12.7566C50.6969 13.134 50.9885 13.803 51.16 14.7636C51.3315 15.6899 51.4345 16.6333 51.4688 17.5939C51.5031 18.5545 51.5202 19.3092 51.5202 19.8582C51.5202 20.6129 51.5031 21.3677 51.4688 22.1224C51.4345 22.8772 51.383 23.6491 51.3144 24.4381C51.4859 23.9921 51.7261 23.4261 52.0348 22.7399C52.3436 22.0195 52.7038 21.3162 53.1155 20.6301C53.5615 19.9096 54.0246 19.3092 54.5049 18.8289C55.0195 18.3486 55.5685 18.1085 56.1517 18.1085C56.7349 18.1085 57.1809 18.4344 57.4896 19.0862C57.7984 19.7038 58.0042 20.4757 58.1072 21.402C58.2444 22.3283 58.3302 23.2202 58.3645 24.0779C58.3988 24.9013 58.4159 25.5188 58.4159 25.9305C58.6218 25.4159 58.9477 24.6783 59.3937 23.7177C59.874 22.7571 60.4229 21.7107 61.0404 20.5786C61.6922 19.4465 62.3784 18.3658 63.0988 17.3366C63.8193 16.3074 64.5226 15.4669 65.2087 14.815C65.8948 14.1289 66.5295 13.7858 67.1127 13.7858C67.593 13.7858 67.8846 14.0431 67.9876 14.5577C68.1248 15.0723 68.1934 15.5012 68.1934 15.8442C68.1934 17.2165 68.0562 18.606 67.7817 20.0125C67.5416 21.4191 67.2843 22.8429 67.0098 24.2837C66.7697 25.7246 66.6496 27.1827 66.6496 28.6579C66.6496 28.8294 66.6496 29.2068 66.6496 29.79C66.6839 30.3732 66.7525 30.9221 66.8554 31.4367C66.9927 31.917 67.2157 32.1572 67.5244 32.1572C68.039 32.1572 68.5708 31.8999 69.1197 31.3853C69.6686 30.8707 70.166 30.2875 70.612 29.6356C71.0923 28.9495 71.4869 28.3491 71.7956 27.8345C72.1387 27.2856 72.3617 27.0111 72.4646 27.0111C72.6018 27.1484 72.6704 27.3199 72.6704 27.5257C72.6704 27.8688 72.4818 28.3834 72.1044 29.0696C71.727 29.7557 71.2467 30.459 70.6635 31.1794C70.1146 31.8999 69.5485 32.5174 68.9653 33.032C68.3821 33.5123 67.9018 33.7525 67.5244 33.7525C66.8726 33.7525 66.358 33.4265 65.9806 32.7747C65.6375 32.1229 65.3974 31.3853 65.2602 30.5619C65.1572 29.7385 65.1058 29.1039 65.1058 28.6579C65.1058 27.3199 65.1915 25.9991 65.3631 24.6954C65.5346 23.3575 65.7405 22.0366 65.9806 20.733C66.1178 20.0468 66.2894 19.3264 66.4952 18.5716C66.7354 17.8169 66.8554 17.0964 66.8554 16.4103C66.8554 16.2045 66.7868 15.9986 66.6496 15.7928L66.5467 15.7413C66.3408 15.7413 66.0664 15.9472 65.7233 16.3588C65.3802 16.7362 65.0543 17.1479 64.7456 17.5939C64.4711 18.0399 64.2653 18.3486 64.128 18.5202C62.8244 20.3728 61.778 22.2939 60.9889 24.2837C60.1999 26.2392 59.3079 28.229 58.313 30.2531C58.2444 30.3904 58.1415 30.5276 58.0042 30.6648C57.9013 30.8021 57.7641 30.8707 57.5926 30.8707C57.2495 30.8707 57.0093 30.5448 56.8721 29.8929C56.7692 29.2068 56.7177 28.4349 56.7177 27.5772C56.7177 26.7881 56.7349 26.0505 56.7692 25.3644C56.8378 24.644 56.8721 24.1465 56.8721 23.8721C56.8721 23.7348 56.855 23.4432 56.8207 22.9972C56.8207 22.5512 56.7863 22.0709 56.7177 21.5563C56.6834 21.0417 56.6148 20.5958 56.5119 20.2184C56.4433 19.841 56.3232 19.6523 56.1517 19.6523C55.8086 19.6523 55.5341 19.7895 55.3283 20.064C55.1568 20.3384 54.9852 20.6129 54.8137 20.8874C53.8188 22.5684 53.0126 24.3009 52.3951 26.0849C51.8462 27.7316 51.4516 29.4298 51.2115 31.1794C50.9713 32.8948 50.5596 34.5587 49.9764 36.1711C49.8735 36.5828 49.6162 36.7886 49.2045 36.7886Z" fill="#013B41" stroke="#013B41" stroke-width="2.5"/>
<path d="M37.0193 36.891C36.3675 36.891 35.8186 36.6508 35.3726 36.1705C34.9609 35.6902 34.635 35.107 34.3949 34.4209C34.1547 33.7004 33.9832 32.98 33.8803 32.2596C33.8117 31.5391 33.7773 30.9387 33.7773 30.4584C33.7773 29.9438 33.8288 29.1205 33.9317 27.9883C34.069 26.8219 34.2748 25.5354 34.5492 24.1288C34.8237 22.7222 35.1668 21.3671 35.5785 20.0634C35.9901 18.7255 36.4704 17.6105 37.0193 16.7185C37.6026 15.8265 38.2715 15.3463 39.0263 15.2776C39.1292 14.9689 39.2836 14.7116 39.4894 14.5057C39.6953 14.2656 39.9697 14.1455 40.3128 14.1455C40.9989 14.1455 41.5993 14.4371 42.1139 15.0203C42.6285 15.6036 43.0574 16.324 43.4004 17.1817C43.7435 18.0393 44.0008 18.8799 44.1723 19.7032C44.3782 20.5266 44.4811 21.1956 44.4811 21.7102C44.4811 23.2883 44.3267 24.8493 44.018 26.3931L44.4296 26.4445C45.4245 26.4445 46.1964 26.2902 46.7454 25.9814C47.2943 25.6726 47.7231 25.381 48.0319 25.1066C48.3406 24.7978 48.5979 24.6434 48.8038 24.6434C49.0096 24.6434 49.1125 24.7635 49.1125 25.0036C49.1125 25.4153 48.8895 25.7927 48.4435 26.1358C48.0319 26.4445 47.5173 26.7361 46.8997 27.0106C46.2822 27.2507 45.6818 27.4223 45.0986 27.5252C44.5154 27.6281 44.0694 27.6453 43.7607 27.5767C43.5891 28.2971 43.2975 29.1891 42.8858 30.2526C42.5085 31.2818 42.0282 32.311 41.4449 33.3402C40.896 34.3351 40.2442 35.1756 39.4894 35.8618C38.7347 36.5479 37.9113 36.891 37.0193 36.891ZM42.6285 25.3639C42.8344 24.1631 42.9373 22.9452 42.9373 21.7102C42.9373 21.4357 42.8687 20.9726 42.7314 20.3208C42.6285 19.6346 42.457 18.9142 42.2168 18.1594C42.011 17.4047 41.7537 16.7528 41.4449 16.2039C41.1362 15.655 40.8103 15.3806 40.4672 15.3806C40.2957 15.3806 40.1584 15.5178 40.0555 15.7922C39.9869 16.0324 39.9354 16.3068 39.9011 16.6156C39.9011 16.9244 39.9011 17.1302 39.9011 17.2331C39.9011 18.6054 40.107 20.0463 40.5186 21.5558C40.9646 23.031 41.6679 24.3004 42.6285 25.3639ZM37.1737 35.553C37.6883 35.553 38.2201 35.21 38.769 34.5238C39.3179 33.8034 39.8325 32.9457 40.3128 31.9508C40.8274 30.9216 41.2563 29.9438 41.5993 29.0176C41.9424 28.0913 42.1654 27.4051 42.2683 26.9591C40.9646 26.0672 39.9869 24.8664 39.3351 23.3569C38.7175 21.8474 38.4088 20.3036 38.4088 18.7255C38.4088 18.0393 38.4602 17.3875 38.5632 16.77C37.8427 18.005 37.2423 19.4631 36.762 21.1441C36.2817 22.8252 35.9215 24.5405 35.6814 26.2902C35.4755 28.0398 35.3726 29.6351 35.3726 31.076C35.3726 31.419 35.4069 31.9508 35.4755 32.6712C35.5785 33.3917 35.7671 34.0607 36.0416 34.6782C36.3161 35.2614 36.6934 35.553 37.1737 35.553Z" fill="#013B41" stroke="#013B41" stroke-width="2.5"/>
<path d="M5.70515 39C4.64163 39 3.74965 38.6912 3.02921 38.0737C2.34307 37.4905 2 36.65 2 35.5522C2 35.2777 2.06861 34.866 2.20584 34.3171C2.37738 33.7339 2.58322 33.2021 2.82337 32.7218C3.09782 32.2072 3.38943 31.9499 3.69819 31.9499C3.90403 31.9499 4.00695 32.0872 4.00695 32.3616C4.00695 32.6704 3.83542 33.0649 3.49235 33.5452C3.14928 33.9912 2.97775 34.5744 2.97775 35.2949C2.97775 35.9467 3.16643 36.4441 3.54381 36.7872C3.92119 37.1303 4.41864 37.3018 5.03616 37.3018C6.61428 37.3018 11.3546 36.9587 13.2415 36.2726C15.1627 35.5865 17.0495 34.6773 18.9021 33.5452C20.7547 32.4131 22.4014 31.1609 23.8423 29.7886C25.3175 28.382 26.381 26.9583 27.0328 25.5174C27.273 25.0371 27.3931 24.5911 27.3931 24.1794C27.3931 23.4247 27.0672 22.9615 26.4153 22.79C25.7635 22.5841 25.1631 22.4812 24.6142 22.4812C22.5215 22.4812 20.3259 22.6013 18.0273 22.8414C15.7287 23.0816 13.4302 23.2017 11.1316 23.2017C10.0681 23.2017 9.03888 23.0473 8.04398 22.7385C7.08338 22.4298 6.27717 21.9152 5.62534 21.1947C5.00781 20.4743 4.69905 19.4965 4.69905 18.2615C4.69905 16.752 5.17935 15.2425 6.13994 13.733C7.10054 12.2235 8.30128 10.7997 9.74217 9.46175C11.2174 8.12378 12.744 6.95735 14.3221 5.96245C15.9346 4.93324 17.3583 4.16134 18.5934 3.64673C19.7941 3.16644 20.9777 2.77191 22.1441 2.46314C23.3449 2.15438 24.5799 2 25.8493 2H26.5697C27.8391 2 29.0913 2.18869 30.3263 2.56607C31.5614 2.94344 32.5906 3.57812 33.4139 4.4701C34.2373 5.32777 34.649 6.49421 34.649 7.9694C34.649 8.24386 34.5975 8.707 34.4946 9.35883C34.426 9.97636 34.2888 10.5596 34.0829 11.1085C33.8771 11.6231 33.5855 11.8804 33.2081 11.8804C33.0366 11.8804 32.9508 11.7775 32.9508 11.5716C32.9508 11.1256 33.0366 10.6796 33.2081 10.2337C33.3796 9.78767 33.4654 9.34168 33.4654 8.89569C33.4654 7.66064 33.1052 6.64859 32.3847 5.85953C31.6643 5.07047 30.7723 4.48725 29.7088 4.10988C28.6453 3.7325 27.5646 3.54381 26.4668 3.54381C25.0945 3.54381 23.5507 3.80111 21.8354 4.31572C20.12 4.83032 18.4047 5.55076 16.6893 6.47705C14.974 7.40334 13.3787 8.50116 11.9035 9.77052C10.4626 11.0056 9.29618 12.3435 8.4042 13.7844C7.51222 15.2253 7.06623 16.7177 7.06623 18.2615C7.06623 19.0162 7.28922 19.6681 7.73521 20.217C8.21551 20.7316 8.79873 21.1261 9.48487 21.4006C10.2053 21.675 10.8914 21.8122 11.5433 21.8122C13.8418 21.8122 16.1061 21.6407 18.336 21.2976C20.6003 20.9203 22.8474 20.7316 25.0774 20.7316C25.7292 20.7316 26.381 20.8173 27.0328 20.9889C27.6847 21.1261 28.2164 21.4177 28.6281 21.8637C29.0741 22.2754 29.2971 22.8758 29.2971 23.6648C29.2971 25.1057 28.7997 26.5637 27.8048 28.0389C26.8099 29.4798 25.5233 30.8693 23.9452 32.2072C22.3671 33.5109 20.6346 34.6773 18.7477 35.7065C16.8952 36.7357 15.0769 37.542 13.2929 38.1252C11.5433 38.7084 7.00881 39 5.70515 39Z" fill="#013B41" stroke="#013B41" stroke-width="2.5"/>
<path fill-rule="evenodd" clip-rule="evenodd" d="M150.886 2.39339C148.231 3.31856 144.327 6.02285 142.029 8.52935C140.625 10.0605 140.612 10.0581 140.132 8.17143C138.975 3.62662 133.433 2.13622 130.645 5.61981C126.879 10.3244 127.193 26.5369 131.211 34.8723C133.017 38.6182 136.853 39.1033 138.258 35.7633C139.034 33.918 143.15 28.4473 144.841 27.0139C148.667 23.7695 156.526 15.8782 157.69 14.1123C159.696 11.0705 160.583 6.65219 159.593 4.64001C158.554 2.52672 153.929 1.33352 150.886 2.39339ZM153.842 6.77094C153.458 10.1755 152.007 12.5598 147.697 16.8672C145.55 19.013 141.879 22.7751 139.54 25.227C135.286 29.6856 135.286 29.6856 134.778 27.4322C133.169 20.2941 133.018 6.68917 134.549 6.68917C134.994 6.68917 135.507 9.07998 135.896 12.9656C136.312 17.1274 136.449 17.4364 138.007 17.7438C139.925 18.1221 140.599 17.7028 142.288 15.0813C144.662 11.3961 148.07 8.13445 151.812 5.96552C154.015 4.68852 154.074 4.71193 153.842 6.77094Z" fill="#D84500"/>
<path d="M134.536 8.14001C133.671 11.9951 132.806 15.8502 132.343 17.8984C131.88 19.9465 131.846 20.0709 132.485 18.6427C133.125 17.2144 134.439 14.2298 135.151 12.8011C135.863 11.3724 135.932 11.59 135.587 13.6919C135.242 15.7937 134.481 19.7732 134.141 21.7921C133.801 23.8111 133.905 23.7489 134.425 22.5821C134.946 21.4153 135.88 19.1457 136.378 17.8989C136.877 16.652 136.911 16.4965 136.946 16.3698C136.982 16.2431 137.016 16.1498 136.705 17.8894C136.394 19.6291 135.737 23.2044 135.399 25.155C135.06 27.1056 135.06 27.3233 135.89 25.1969C136.721 23.0706 138.381 18.5937 139.271 16.2252C140.161 13.8567 140.23 13.7324 139.695 15.9379C139.16 18.1433 138.018 22.6824 137.43 25.0985C136.842 27.5145 136.842 27.67 137.863 25.3251C138.883 22.9801 140.924 18.1302 142.166 15.2897C143.408 12.4492 143.788 11.7652 143.431 13.4648C143.073 15.1644 141.966 19.2682 141.465 21.3512C140.964 23.4342 141.102 23.3721 141.745 21.8477C142.387 20.3234 143.528 17.3388 144.583 15.024C145.638 12.7092 146.572 11.1548 146.639 12.3437C146.705 13.5327 145.874 17.5121 145.498 19.5155C145.123 21.5189 145.226 21.4257 145.92 19.621C146.613 17.8164 147.893 14.3033 148.829 11.9805C149.766 9.65775 150.319 8.63179 150.656 8.04108C150.993 7.45038 151.097 7.32602 151.168 7.30859C151.238 7.29116 151.273 7.38443 150.98 9.12687C150.686 10.8693 150.063 14.2581 149.777 15.9572C149.491 17.6563 149.56 17.563 149.665 17.3906C149.77 17.2182 149.908 16.9695 150.464 15.6755C151.019 14.3815 151.988 12.0498 152.798 10.3356C154.116 7.54896 154.942 6.44515 154.995 6.27274C155.048 6.10136 154.664 6.03627 154.455 6.00471C154.019 5.9389 153.617 6.56668 152.884 7.63362C152.52 8.16233 152.393 8.76557 152.235 9.26866C152.183 9.3949 152.114 9.51926 152.061 9.62996C152.008 9.74065 151.973 9.83392 151.938 9.93002" stroke="#D84500" stroke-width="3" stroke-linecap="round"/>
</svg>
