<svg width="240" height="40" viewBox="0 0 240 40" fill="none" xmlns="http://www.w3.org/2000/svg">
<path d="M186.846 9.84033C185.864 9.84033 185.057 9.55671 184.424 8.98947C183.813 8.40042 183.508 7.68046 183.508 6.8296C183.508 5.95692 183.813 5.23696 184.424 4.66972C185.057 4.08066 185.864 3.78613 186.846 3.78613C187.806 3.78613 188.591 4.08066 189.202 4.66972C189.835 5.23696 190.151 5.95692 190.151 6.8296C190.151 7.68046 189.835 8.40042 189.202 8.98947C188.591 9.55671 187.806 9.84033 186.846 9.84033ZM189.627 11.7384V29.9992H184.031V11.7384H189.627Z" fill="#D84500"/>
<path d="M159.728 20.837C159.728 18.9608 160.077 17.3136 160.775 15.8955C161.495 14.4774 162.466 13.3865 163.687 12.6229C164.909 11.8593 166.273 11.4775 167.778 11.4775C169.065 11.4775 170.189 11.7393 171.149 12.2629C172.13 12.7866 172.883 13.4738 173.407 14.3247V11.7393H179.003V30.0001H173.407V27.4148C172.861 28.2657 172.098 28.9529 171.116 29.4765C170.156 30.0001 169.032 30.2619 167.745 30.2619C166.262 30.2619 164.909 29.8801 163.687 29.1165C162.466 28.3311 161.495 27.2294 160.775 25.8113C160.077 24.3714 159.728 22.7133 159.728 20.837ZM173.407 20.8697C173.407 19.4734 173.014 18.3717 172.229 17.5645C171.465 16.7572 170.527 16.3536 169.414 16.3536C168.302 16.3536 167.353 16.7572 166.567 17.5645C165.804 18.3499 165.422 19.4407 165.422 20.837C165.422 22.2333 165.804 23.346 166.567 24.175C167.353 24.9822 168.302 25.3858 169.414 25.3858C170.527 25.3858 171.465 24.9822 172.229 24.175C173.014 23.3678 173.407 22.266 173.407 20.8697Z" fill="#D84500"/>
<path d="M151.456 14.7847C152.111 13.7812 152.929 12.9957 153.911 12.4285C154.893 11.8395 155.983 11.5449 157.183 11.5449V17.4682H155.645C154.249 17.4682 153.202 17.7737 152.504 18.3845C151.805 18.9736 151.456 20.0208 151.456 21.5262V30.0021H145.86V11.7413H151.456V14.7847Z" fill="#D84500"/>
<path d="M132.354 30.2619C130.565 30.2619 128.95 29.8801 127.51 29.1165C126.092 28.3529 124.969 27.2621 124.14 25.844C123.332 24.4259 122.929 22.7678 122.929 20.8697C122.929 18.9935 123.343 17.3463 124.172 15.9282C125.001 14.4883 126.136 13.3865 127.576 12.6229C129.016 11.8593 130.63 11.4775 132.419 11.4775C134.208 11.4775 135.823 11.8593 137.262 12.6229C138.702 13.3865 139.837 14.4883 140.666 15.9282C141.495 17.3463 141.909 18.9935 141.909 20.8697C141.909 22.746 141.484 24.4041 140.633 25.844C139.804 27.2621 138.659 28.3529 137.197 29.1165C135.757 29.8801 134.143 30.2619 132.354 30.2619ZM132.354 25.4186C133.423 25.4186 134.328 25.0259 135.07 24.2404C135.833 23.455 136.215 22.3315 136.215 20.8697C136.215 19.408 135.844 18.2844 135.103 17.499C134.383 16.7136 133.488 16.3209 132.419 16.3209C131.328 16.3209 130.423 16.7136 129.703 17.499C128.983 18.2626 128.623 19.3862 128.623 20.8697C128.623 22.3315 128.972 23.455 129.67 24.2404C130.39 25.0259 131.285 25.4186 132.354 25.4186Z" fill="#D84500"/>
<path d="M107.787 11.4775C109.074 11.4775 110.198 11.7393 111.157 12.2629C112.139 12.7866 112.892 13.4738 113.416 14.3247V11.7393H119.012V29.9674C119.012 31.6473 118.673 33.1636 117.997 34.5162C117.343 35.8907 116.328 36.9815 114.954 37.7888C113.601 38.596 111.91 38.9996 109.881 38.9996C107.176 38.9996 104.983 38.356 103.303 37.0688C101.624 35.8034 100.664 34.0799 100.424 31.8982H105.954C106.129 32.5963 106.543 33.1418 107.198 33.5345C107.852 33.949 108.659 34.1562 109.619 34.1562C110.776 34.1562 111.692 33.8181 112.368 33.1418C113.066 32.4873 113.416 31.4291 113.416 29.9674V27.3821C112.87 28.2329 112.117 28.9311 111.157 29.4765C110.198 30.0001 109.074 30.2619 107.787 30.2619C106.281 30.2619 104.918 29.8801 103.696 29.1165C102.474 28.3311 101.504 27.2294 100.784 25.8113C100.085 24.3714 99.7363 22.7133 99.7363 20.837C99.7363 18.9608 100.085 17.3136 100.784 15.8955C101.504 14.4774 102.474 13.3865 103.696 12.6229C104.918 11.8593 106.281 11.4775 107.787 11.4775ZM113.416 20.8697C113.416 19.4734 113.023 18.3717 112.237 17.5645C111.474 16.7572 110.536 16.3536 109.423 16.3536C108.31 16.3536 107.361 16.7572 106.576 17.5645C105.812 18.3499 105.431 19.4407 105.431 20.837C105.431 22.2333 105.812 23.346 106.576 24.175C107.361 24.9822 108.31 25.3858 109.423 25.3858C110.536 25.3858 111.474 24.9822 112.237 24.175C113.023 23.3678 113.416 22.266 113.416 20.8697Z" fill="#D84500"/>
<path d="M76.542 20.837C76.542 18.9608 76.8911 17.3136 77.5892 15.8955C78.3092 14.4774 79.28 13.3865 80.5018 12.6229C81.7235 11.8593 83.0871 11.4775 84.5924 11.4775C85.8796 11.4775 87.0032 11.7393 87.9632 12.2629C88.9449 12.7866 89.6976 13.4738 90.2212 14.3247V11.7393H95.8173V30.0001H90.2212V27.4148C89.6758 28.2657 88.9122 28.9529 87.9304 29.4765C86.9705 30.0001 85.8469 30.2619 84.5597 30.2619C83.0762 30.2619 81.7235 29.8801 80.5018 29.1165C79.28 28.3311 78.3092 27.2294 77.5892 25.8113C76.8911 24.3714 76.542 22.7133 76.542 20.837ZM90.2212 20.8697C90.2212 19.4734 89.8285 18.3717 89.0431 17.5645C88.2795 16.7572 87.3414 16.3536 86.2287 16.3536C85.116 16.3536 84.167 16.7572 83.3816 17.5645C82.618 18.3499 82.2362 19.4407 82.2362 20.837C82.2362 22.2333 82.618 23.346 83.3816 24.175C84.167 24.9822 85.116 25.3858 86.2287 25.3858C87.3414 25.3858 88.2795 24.9822 89.0431 24.175C89.8285 23.3678 90.2212 22.266 90.2212 20.8697Z" fill="#013C42"/>
<path d="M65.3317 11.5449C67.6007 11.5449 69.4006 12.2322 70.7314 13.6066C72.0841 14.9811 72.7604 16.8901 72.7604 19.3336V30.0021H67.1971V20.0863C67.1971 18.9081 66.8807 18.0027 66.2481 17.37C65.6372 16.7155 64.7863 16.3883 63.6955 16.3883C62.6046 16.3883 61.7429 16.7155 61.1102 17.37C60.4993 18.0027 60.1939 18.9081 60.1939 20.0863V30.0021H54.6305V20.0863C54.6305 18.9081 54.3142 18.0027 53.6815 17.37C53.0706 16.7155 52.2198 16.3883 51.1289 16.3883C50.0381 16.3883 49.1763 16.7155 48.5436 17.37C47.9327 18.0027 47.6273 18.9081 47.6273 20.0863V30.0021H42.0312V11.7413H47.6273V14.0321C48.1945 13.2685 48.9363 12.6685 49.8526 12.2322C50.7689 11.774 51.8052 11.5449 52.9615 11.5449C54.336 11.5449 55.5578 11.8395 56.6268 12.4285C57.7176 13.0176 58.5685 13.8575 59.1794 14.9484C59.8121 13.9448 60.6738 13.1266 61.7647 12.494C62.8555 11.8613 64.0445 11.5449 65.3317 11.5449Z" fill="#013C42"/>
<path d="M28.5255 30.2619C26.7365 30.2619 25.1221 29.8801 23.6821 29.1165C22.264 28.3529 21.1405 27.2621 20.3114 25.844C19.5042 24.4259 19.1006 22.7678 19.1006 20.8697C19.1006 18.9935 19.5151 17.3463 20.3442 15.9282C21.1732 14.4883 22.3077 13.3865 23.7476 12.6229C25.1875 11.8593 26.802 11.4775 28.591 11.4775C30.3799 11.4775 31.9944 11.8593 33.4343 12.6229C34.8742 13.3865 36.0087 14.4883 36.8378 15.9282C37.6668 17.3463 38.0813 18.9935 38.0813 20.8697C38.0813 22.746 37.6559 24.4041 36.805 25.844C35.976 27.2621 34.8306 28.3529 33.3689 29.1165C31.9289 29.8801 30.3145 30.2619 28.5255 30.2619ZM28.5255 25.4186C29.5945 25.4186 30.4999 25.0259 31.2417 24.2404C32.0053 23.455 32.3871 22.3315 32.3871 20.8697C32.3871 19.408 32.0162 18.2844 31.2744 17.499C30.5545 16.7136 29.66 16.3209 28.591 16.3209C27.5001 16.3209 26.5947 16.7136 25.8747 17.499C25.1548 18.2626 24.7948 19.3862 24.7948 20.8697C24.7948 22.3315 25.1439 23.455 25.842 24.2404C26.562 25.0259 27.4565 25.4186 28.5255 25.4186Z" fill="#013C42"/>
<path d="M8.41043 30.2619C6.81779 30.2619 5.39969 29.9892 4.15613 29.4438C2.91256 28.8984 1.9308 28.1566 1.21084 27.2185C0.490881 26.2585 0.0872678 25.1895 0 24.0114H5.53059C5.59605 24.6441 5.89057 25.1568 6.41418 25.5495C6.93779 25.9422 7.58139 26.1385 8.34498 26.1385C9.04312 26.1385 9.57764 26.0076 9.94853 25.7458C10.3412 25.4622 10.5376 25.1022 10.5376 24.6659C10.5376 24.1423 10.2649 23.7605 9.71945 23.5205C9.17402 23.2587 8.29044 22.9751 7.06869 22.6696C5.75967 22.3642 4.66882 22.0478 3.79615 21.7206C2.92347 21.3715 2.17079 20.837 1.53809 20.117C0.905403 19.3753 0.589057 18.3826 0.589057 17.139C0.589057 16.0918 0.872678 15.1428 1.43992 14.2919C2.02898 13.4192 2.87984 12.732 3.9925 12.2302C5.12698 11.7284 6.46872 11.4775 8.01773 11.4775C10.3085 11.4775 12.1084 12.0448 13.4174 13.1793C14.7483 14.3137 15.5118 15.8191 15.7082 17.6954H10.5376C10.4503 17.0627 10.1667 16.5609 9.68672 16.19C9.22857 15.8191 8.61769 15.6337 7.8541 15.6337C7.19959 15.6337 6.6978 15.7646 6.34873 16.0264C5.99966 16.2664 5.82512 16.6045 5.82512 17.0409C5.82512 17.5645 6.09783 17.9572 6.64326 18.219C7.2105 18.4808 8.08318 18.7426 9.26129 19.0044C10.6139 19.3535 11.7157 19.7025 12.5666 20.0516C13.4174 20.3789 14.1592 20.9243 14.7919 21.6879C15.4464 22.4296 15.7846 23.4332 15.8064 24.6986C15.8064 25.7676 15.5009 26.7276 14.8901 27.5784C14.301 28.4075 13.4392 29.062 12.3048 29.542C11.1921 30.0219 9.89398 30.2619 8.41043 30.2619Z" fill="#013C42"/>
<path d="M195.609 0.00895687C196.667 -0.0869732 199.357 0.471397 201.664 3.46989C204.547 7.21837 204.548 8.37154 208.297 11.2551C210.411 10.8706 215.563 10.4482 219.254 11.8322C223.867 13.5623 229.347 1.45134 233.383 1.45134C237.42 1.4521 235.401 13.2741 234.248 17.0226C233.095 20.7706 233.095 21.3474 233.383 21.924C233.672 22.5007 234.825 25.3846 233.672 29.9982H195.032C194.647 28.3642 195.669 24.3807 195.609 20.7707C195.577 18.8533 195.398 17.7844 195.32 15.8683C195.069 9.67915 193.764 6.69866 195.609 0.00895687ZM210.782 24.2297C209.57 24.2771 207.898 24.2295 207.898 25.383C207.899 26.8249 209.628 25.3672 209.629 27.9777C209.629 29.4198 212.238 28.9107 211.936 27.4015C211.706 26.2485 212.416 26.3442 212.8 26.2482C213.281 26.1521 214.127 25.7868 213.666 25.0949C213.089 24.2298 211.957 24.1837 210.782 24.2297ZM220.59 17.8771C218.201 17.8773 216.554 20.0033 216.553 21.9142C216.553 23.8252 218.201 24.7979 220.59 24.798C222.978 24.798 224.628 24.1133 224.628 22.2023C224.627 20.2914 222.978 17.8773 220.59 17.8771ZM220.873 19.7873C221.823 19.6873 222.688 20.505 222.805 21.6134C222.922 22.7219 222.246 23.7017 221.296 23.8019C220.345 23.9019 219.481 23.0843 219.364 21.9758C219.247 20.8673 219.923 19.8874 220.873 19.7873ZM204.442 16.7238C202.053 16.7238 199.829 18.9788 199.829 21.049C199.829 23.1193 201.765 23.6447 204.154 23.6447C206.543 23.6446 208.479 23.1191 208.479 21.049C208.479 18.9789 206.83 16.7241 204.442 16.7238ZM205.02 19.0304C205.975 19.0307 206.751 19.9345 206.751 21.049C206.751 22.1636 205.976 23.0673 205.02 23.0676C204.065 23.0674 203.291 22.1637 203.291 21.049C203.291 19.9344 204.065 19.0306 205.02 19.0304Z" fill="#2F2E1B"/>
</svg>
