<svg width="294" height="388" viewBox="0 0 294 388" fill="none" xmlns="http://www.w3.org/2000/svg">
<g clip-path="url(#clip0_940_470)">
<path d="M120.332 57.7385C124.875 56.2201 131.16 64.116 133.962 67.6084C137.369 71.8601 147.44 84.4631 142.291 95.6996C138.581 103.823 127.677 109.517 121.846 106.329C120.937 105.797 118.06 103.975 116.546 90.3851C115.788 83.628 113.214 60.0921 120.332 57.7385Z" fill="#181211"/>
<path d="M173.337 362.946C173.791 363.857 176.668 363.781 182.423 363.705C191.888 363.553 197.87 362.263 203.625 361.427C211.955 360.289 218.012 360.44 227.856 360.668C241.41 361.048 248.225 361.2 251.33 362.946C252.541 363.629 255.419 365.451 258.145 364.464C260.114 363.781 261.401 361.731 261.931 359.909C262.84 356.568 260.644 354.67 258.902 348.521C257.463 343.358 258.372 342.523 257.388 340.169C254.359 333.26 242.168 332.122 238.457 331.818C208.093 329.085 170.914 357.783 173.337 362.946Z" fill="#006E90"/>
<path d="M167.279 357.63C166.598 356.871 165.31 356.871 162.736 356.871C159.934 356.871 157.662 356.871 157.435 357.63C157.284 358.238 158.571 359.073 161.221 360.667C164.175 362.489 165.613 363.4 166.522 362.945C168.036 362.186 168.566 358.997 167.279 357.63Z" fill="#331F1D" stroke="#1C0101" stroke-width="0.25" stroke-miterlimit="10"/>
<path d="M75.6562 280.189C85.8786 265.688 103.446 272.901 183.938 272.597C219.073 272.445 233.99 271.003 239.972 280.949C246.938 292.565 237.397 312.684 226.342 324.224C207.639 343.66 180.152 343.129 144.563 342.446C110.867 341.762 90.2704 341.383 78.6851 325.743C69.6742 313.595 66.5696 292.944 75.6562 280.189Z" fill="#AF3628"/>
<path d="M132.069 80.1361C132.977 81.3508 135.4 85.0711 135.097 90.0061C134.795 95.7761 131.009 99.4963 129.797 100.635C126.768 103.368 124.572 103.216 124.496 104.431C124.345 107.392 136.839 110.732 146.456 112.023C157.965 113.617 164.099 112.099 166.9 111.264C169.096 110.58 178.032 107.923 178.259 103.672C178.334 102.305 176.82 100.483 173.715 96.8391C170.384 92.8911 169.475 92.5115 168.415 90.7653C167.203 88.6395 166.219 85.147 167.658 79.377C155.769 79.6047 143.957 79.8324 132.069 80.1361Z" fill="#CE6C52"/>
<path d="M116.167 26.6103C116.546 25.8511 116.848 25.3196 117 25.0159C117.757 23.7252 122.755 14.8423 132.144 11.3499C143.881 7.02236 155.542 13.7035 159.858 16.2089C160.994 16.8163 165.007 19.2458 169.096 23.4215C174.775 29.2675 177.274 35.1895 178.334 37.9227C179.016 39.8207 180.53 44.1483 180.833 49.9943C181.06 53.8663 181.515 71.5562 169.096 81.8057C167.658 82.9445 164.326 85.7537 159.025 87.1962C154.255 88.4869 150.242 88.1073 147.288 87.8795C143.957 87.5758 137.672 86.9684 131.311 83.1723C123.209 78.3133 119.802 71.2525 117 65.2547C115.334 61.6863 112.532 55.6126 112.835 47.5648C112.911 45.2112 113.214 45.6667 113.668 41.1114C114.274 34.5821 113.971 31.2415 116.167 26.6103Z" fill="#F4A992"/>
<path d="M120.256 197.057C117.076 200.018 113.593 202.751 109.731 206.547C87.9989 227.957 84.97 229.855 77.9279 238.434C75.3534 241.547 73.4603 243.521 69.5985 247.545C59.3004 258.174 57.1802 258.326 55.9687 258.174C51.3496 257.415 48.7751 249.671 46.8821 243.749C46.2006 241.547 44.9133 237.144 44.6104 230.842C44.459 227.122 44.6104 223.326 46.8821 211.102C48.8508 200.397 49.9109 195.007 51.4254 189.844C54.7571 178.684 56.8016 177.697 58.9975 168.586C61.1934 159.551 59.679 158.868 61.2692 149.605C62.935 139.963 65.8882 122.957 77.9279 115.44C79.4423 114.529 84.4399 112.783 94.5866 109.367C97.3883 108.38 102.083 105.798 108.974 104.811C110.412 104.584 111.624 104.508 112.381 104.432C116.319 105.722 124.194 108.835 126.768 115.82C129.191 122.425 125.178 129.03 117.682 142.393C115.259 146.72 109.049 157.273 97.9941 169.725C85.5 183.846 80.5781 188.705 80.5781 188.705C77.7764 191.514 71.5673 197.512 69.2199 206.927C68.3113 210.571 68.7656 211.634 69.2199 212.241C73.2332 217.176 94.4352 205.408 95.7224 204.649C102.31 200.929 109.277 196.981 113.971 191.742" fill="#F4A992"/>
<path d="M207.79 115.06C209.835 114.528 212.939 115.971 219.148 118.856C227.251 122.652 231.264 124.55 234.293 127.967C238.154 132.294 238.912 136.925 240.35 145.429C241.562 152.945 241.259 156.969 241.108 173.52C241.108 176.101 241.108 181.568 241.108 192.5C241.108 211.709 241.335 214.062 241.108 222.869C240.729 239.572 239.669 245.798 236.564 252.479C232.551 261.058 228.765 262.653 227.478 263.108C221.874 265.006 214.681 262.045 210.819 257.794C199.991 245.95 218.997 228.791 213.848 195.537C210.516 173.824 204.004 158.335 204.004 158.335C201.657 152.641 199.309 148.162 198.704 140.873C197.871 130.472 200.9 116.958 207.79 115.06Z" fill="#F4A992"/>
<path d="M111.624 105.189C112.457 104.885 114.956 103.898 118.439 102.911C122.831 101.621 126.541 101.013 129.04 100.634C128.586 101.393 128.056 102.456 128.283 103.671C129.267 109.061 144.714 111.187 155.542 110.504C162.585 110.048 168.491 108.378 172.958 106.707C177.426 105.341 180.076 103.063 179.773 101.393C179.546 100.026 177.35 99.343 176.744 99.1152C178.486 99.7226 181.136 100.71 184.317 102.152C189.996 104.733 192.419 106.632 198.704 109.744C201.96 111.339 204.307 112.402 207.033 113.54C221.572 119.766 224.449 118.779 229.75 122.651C235.58 126.903 238.23 132.597 239.593 135.558C244.439 145.959 243.152 155.981 242.622 160.612C242.395 162.586 242.092 164.105 241.865 165.168C235.429 166.458 228.387 167.521 220.663 168.204C215.59 168.66 210.819 168.888 206.276 168.964C206.579 171.317 206.806 174.81 206.276 178.834C205.367 185.894 202.641 191.664 200.975 194.018C195.296 202.142 181.061 200.775 163.872 200.092C116.319 198.27 103.143 204.343 94.2081 194.018C85.0458 183.465 84.3643 171.241 84.3643 171.241C84.2885 169.647 84.2885 168.356 84.3643 167.445C79.9724 167.825 73.839 167.749 66.9483 165.927C63.768 165.092 60.9663 163.953 58.6189 162.89C58.3918 157.044 58.7704 147.705 62.405 137.076C65.661 127.51 68.0841 120.753 74.5205 115.818C84.5914 108.15 97.9184 110.352 111.624 105.189Z" fill="#006E90"/>
<path d="M42.4727 268.602C46.9434 269.965 53.2441 271.273 60.7261 271.293C66.2952 271.368 71.0431 270.7 74.8789 269.856C75.0994 271.976 76.5672 286.328 70.4574 289.34C64.6833 292.111 52.8145 284.539 42.4727 268.602Z" fill="#AF3628"/>
<path d="M255.873 262.729C248.755 265.386 242.849 266.98 238.457 268.043C234.293 269.03 231.339 269.486 227.856 269.562C224.373 269.637 221.496 269.182 219.527 268.802C219.375 270.245 218.845 277.23 223.313 280.95C229.749 286.34 240.956 279.811 243 278.672C251.254 273.813 254.662 265.993 255.873 262.729Z" fill="#AF3628"/>
<path d="M127.904 306.004C129.191 305.245 130.175 306.308 136.233 308.282C139.868 309.421 141.609 309.724 142.291 311.319C142.594 312.078 142.518 312.837 142.291 314.355C141.912 316.937 141.231 318.076 140.776 319.67C139.413 324.225 141.685 325.896 140.019 329.54C140.019 329.616 139.186 331.286 137.747 332.577C132.75 337.056 123.815 333.488 123.36 333.336C123.285 332.197 123.209 330.375 123.36 328.021C123.739 320.961 125.405 319.822 126.389 312.078C126.919 308.13 126.692 306.687 127.904 306.004Z" fill="#E55747"/>
<path d="M141.155 181.112C141.836 176.329 139.868 175.342 141.155 170.483C142.291 166.155 144.184 165.396 144.941 160.613C145.244 158.715 145.622 155.906 144.184 153.021C143.957 152.489 141.836 148.465 138.883 148.465C137.445 148.465 136.006 149.452 133.583 153.021C131.235 156.513 127.904 161.6 126.768 169.724C126.011 175.342 126.692 179.518 127.525 184.149C128.585 190.45 129.267 194.322 131.311 194.778C134.416 195.461 140.171 188.476 141.155 181.112Z" fill="#CE6C52"/>
<path d="M143.427 180.353C142.594 178.227 144.487 176.86 145.699 171.242C146.531 167.598 146.456 164.713 146.456 162.89C146.38 156.513 143.275 154.159 144.941 150.743C145.244 150.136 146.001 148.769 147.592 148.086C150.318 146.871 153.422 148.845 154.028 149.224C160.843 153.476 159.48 166.459 159.328 168.964C159.026 173.292 158.42 181.34 153.271 183.389C149.712 184.832 144.563 183.162 143.427 180.353Z" fill="#CE6C52"/>
<path d="M134.078 1.4307C130.844 1.5005 128.513 3.24563 127.309 4.22292C118.284 11.2035 113.847 14.7635 110.763 18.8821C103.543 28.7246 101.136 38.637 100.234 44.012C98.5792 54.2735 101.136 55.8091 100.234 76.8206C99.8578 86.384 99.181 89.246 98.7296 90.7818C96.0974 100.694 91.284 104.673 86.6962 112.421C80.3035 123.311 79.2505 133.433 78.4232 141.041C77.5959 148.651 77.3702 162.263 83.6878 178.736C85.3424 175.526 87.3731 170.988 88.9524 165.473C89.3285 164.217 90.3814 160.378 91.2088 154.305C91.9608 148.86 92.5625 141.251 91.9608 131.967C93.9163 142.368 93.841 150.675 93.465 156.399C92.9386 164.217 91.5096 169.453 94.9692 173.153C98.2784 176.713 104.295 176.921 108.507 176.643C106.326 175.456 103.242 173.291 101.738 169.662C100.535 166.87 100.835 164.426 100.985 162.681C101.888 152.28 100.008 152.699 100.985 144.532C101.587 139.785 103.092 132.316 107.754 123.59C98.128 146.068 100.083 155.84 103.994 160.588C105.348 162.263 109.335 166.171 110.763 172.454C111.666 176.433 111.289 179.923 110.763 182.227C114.373 171.756 115.576 163.1 116.028 157.097C116.103 155.771 116.329 152.49 116.028 138.948C115.803 130.221 115.727 125.824 115.276 116.61C114.75 105.72 114.975 105.091 114.523 55.879C114.298 28.7945 114.148 23.0006 119.788 17.486C124.113 13.2473 130.022 11.0445 136 10.1842C136.833 10.0642 137.668 9.97039 138.5 9.90077C139.338 9.83067 140.172 9.78512 141 9.76219C144.428 9.66725 147.735 9.96034 150.624 10.5054C166.643 13.5768 175.443 25.8626 177.699 29.3529C185.672 41.499 184.092 62.0218 180.707 102.648C179.354 118.564 178 128.686 184.468 138.948C187.476 143.764 191.613 147.533 193.493 155.003C195.523 162.961 193.794 170.22 191.989 175.246C189.958 180.831 188.003 186.415 185.972 192C188.68 191.093 194.17 188.788 198.757 183.623C202.519 179.365 203.872 175.106 204.473 173.013C206.955 164.845 205.151 157.725 204.022 154.305C205.827 156.888 209.287 162.472 210.039 170.36C210.791 178.248 208.385 184.321 207.031 187.113C209.438 182.995 212.672 176.573 214.552 168.266C216.657 158.842 216.055 151.373 215.304 142.438C214.928 138.04 214.251 129.943 211.543 120.1C207.332 104.743 203.496 103.905 198.757 90.0836C194.02 76.332 197.404 75.9131 191.989 52.3886C187.627 33.262 183.716 26.3513 182.212 23.7685C174.014 9.87712 164.838 4.99077 161.905 3.52485C158.972 2.05895 153.783 -0.314444 146.864 0.0345836C142.953 0.244 139.794 1.29108 137.838 2.12875C137.087 1.77972 135.733 1.36089 134.078 1.4307Z" fill="#251C1B"/>
<path d="M191.891 81.8739C192.269 64.5938 196.641 61.6468 194.153 47.0457C193.098 41.0178 191.967 34.7219 187.369 27.6223C177.193 12.0167 159.705 7.06031 156.464 6.1896C151.338 4.85006 143.801 2.84074 134.605 4.85006C121.941 7.59613 114.78 16.1022 111.237 20.2548C109.127 22.733 104.982 27.6893 102.946 34.9899C101.815 39.0754 101.891 43.362 102.192 51.7341C102.644 65.7994 102.87 72.832 102.946 73.1669C105.282 88.5047 110.409 91.05 108.223 100.628C107.394 104.378 106.263 105.584 105.208 111.344C104.83 113.554 104.077 118.175 104.454 126.079C104.83 133.982 105.132 140.948 108.223 149.521C109.956 154.276 113.197 161.309 119.529 168.944C117.343 165.194 115.157 160.505 113.499 154.879C110.258 143.56 110.936 133.781 111.992 127.419C111.765 135.188 113.423 140.948 115.007 144.832C117.795 151.664 121.112 154.343 122.545 160.907C123.826 166.667 122.846 171.623 121.79 174.972C125.786 164.323 125.71 155.95 124.805 150.191C123.75 143.56 121.715 140.278 121.036 132.776C120.358 124.673 121.866 117.908 123.298 113.353C122.092 119.448 122.996 123.869 124.052 126.748C125.484 130.701 127.972 134.049 127.067 138.804C126.765 140.546 126.087 141.953 125.56 142.824C126.991 140.613 128.801 137.666 130.836 134.116C132.117 131.839 134.077 128.557 136.113 124.74C139.956 117.506 141.841 113.822 142.142 112.013C143.273 104.244 138.072 97.4123 133.851 91.9207C128.499 84.9549 126.917 86.4284 124.805 81.8739C121.941 75.846 124.655 72.9659 123.298 59.7714C122.77 54.4802 122.319 55.217 121.79 49.7248C120.81 40.0131 120.283 34.7889 122.545 29.6317C123.524 27.3544 126.69 21.3264 136.866 16.5711V16.2362C138.373 12.8873 136.866 9.53847 138.373 6.1896C138.373 9.27056 137.77 12.9543 138.826 16.1022C141.313 15.9013 144.931 15.9013 148.926 16.906C156.615 18.7813 161.213 23.0009 163.248 24.9432C170.56 31.8419 172.142 39.8122 173.047 44.3667C173.726 47.9164 174.856 53.6095 173.047 60.4412C171.163 67.6747 167.846 69.5501 164.756 79.1948C164.002 81.673 163.474 84.1511 162.494 89.2415C158.801 108.062 156.991 117.506 159.479 122.73C161.589 127.285 162.193 129.763 163.248 134.786C163.399 135.59 163.775 137.331 163.248 139.475C162.872 140.948 162.268 142.087 161.741 142.824C163.098 141.551 164.831 139.541 165.51 136.796C166.339 133.513 164.982 131.37 164.002 126.748C163.173 122.596 163.173 119.515 163.248 116.032C163.324 112.684 163.701 107.861 165.51 101.967C171.916 113.487 171.992 121.859 170.786 127.419C169.656 132.776 167.244 136.259 162.494 151.531C161.891 153.405 160.912 156.621 160.233 160.907C159.404 165.863 159.404 170.016 159.479 172.963C160.76 164.189 163.399 157.759 165.51 153.539C167.244 150.124 168.374 148.516 170.786 144.163C174.555 137.197 176.967 131.236 178.324 127.419C178.248 131.035 177.645 136.796 175.309 143.493C172.821 150.459 170.786 151.664 169.278 158.228C168.223 162.782 166.866 169.48 170.786 175.643C172.444 178.188 174.555 179.929 176.062 181C175.836 179.259 175.459 176.713 175.309 173.633C175.083 169.279 174.932 167.136 175.309 165.595C176.666 159.97 182.319 159.903 187.369 153.539C190.007 150.191 190.912 146.641 192.646 139.475C194.379 132.241 194.756 126.414 194.907 122.73C195.661 102.771 191.591 98.2159 191.891 81.8739Z" fill="#251C1B"/>
<path d="M159 74C156.729 75.5944 153.636 76.1963 152.5 76.5C150.607 76.9555 148.046 76.1123 145.471 75.1253C144.108 74.5938 143.199 73.8346 142.669 73.3032C143.578 73.3032 148.155 74.2277 149.745 74C154.289 73.3167 155.577 72.6388 158 71.5C159.742 70.6648 160.843 67.5331 163.341 65.7109C162.811 67.1535 162.332 71.6464 159 74Z" fill="#E05C62"/>
<path d="M156.678 57.7383C158.117 58.1938 159.48 58.8012 160.767 59.4086C161.449 59.7123 162.054 60.0919 162.736 60.3956C163.417 60.6992 164.099 61.0029 164.78 61.6103C165.159 61.914 165.462 62.2936 165.613 62.7491C165.841 63.2047 165.916 63.7361 165.916 64.1157C165.916 64.9509 165.841 65.7101 165.613 66.3934C165.31 67.8359 164.856 69.2785 164.175 70.645C164.25 69.1266 164.326 67.6841 164.402 66.2416C164.402 65.5583 164.478 64.799 164.402 64.1157C164.402 63.8121 164.326 63.5084 164.25 63.3565C164.099 63.1288 163.947 62.901 163.72 62.7491C163.266 62.3695 162.66 62.0658 161.979 61.6862C161.373 61.3066 160.691 60.927 160.086 60.4715C159.026 59.5604 157.814 58.7253 156.678 57.7383Z" fill="#CE6C52"/>
<path d="M143.048 72.9238C144.26 71.5572 145.774 70.4943 147.289 69.5833C148.803 68.6722 150.469 67.913 152.211 67.3056C153.952 66.6982 155.694 66.3186 157.511 66.0909C159.328 65.8631 161.146 65.7872 162.963 66.0909C161.297 66.7741 159.556 67.3056 157.965 67.8371C156.3 68.3685 154.709 68.9 153.044 69.5073C151.453 70.0388 149.788 70.6462 148.197 71.2535C146.456 71.785 144.79 72.3924 143.048 72.9238Z" fill="#E05C62"/>
<path d="M141.913 67.2285C141.913 68.2155 141.837 69.2025 141.761 70.2654C141.686 71.2524 141.61 72.2394 141.383 73.2264C141.307 73.6819 141.231 74.1374 141.383 74.517C141.534 74.8967 141.761 75.2004 142.14 75.504C142.897 75.9596 143.882 76.1873 144.866 76.4151C143.882 76.5669 142.821 76.5669 141.837 76.0355C141.307 75.8077 140.928 75.3522 140.701 74.8207C140.474 74.2134 140.55 73.6819 140.626 73.1505C140.853 72.1635 140.928 71.1765 141.156 70.1895C141.383 69.1266 141.61 68.1396 141.913 67.2285Z" fill="#CE6C52"/>
<path d="M121.089 52.902C123.445 50.1906 126.486 48.0544 129.679 46.6576C131.276 45.9181 133.024 45.4252 134.696 45.0965C136.445 44.7679 138.193 44.6035 139.942 44.6035H140.246L140.398 44.85C141.462 46.1646 142.298 47.8079 142.602 49.4512C142.983 51.1766 142.83 52.9842 142.298 54.5452C142.526 52.902 142.298 51.2588 141.766 49.7798C141.538 49.0403 141.158 48.3009 140.778 47.6436C140.398 46.9863 139.942 46.4111 139.41 45.836L139.942 46.0825C138.269 46.1646 136.597 46.4111 134.924 46.7398C133.252 47.0684 131.655 47.5614 130.059 48.1366C128.463 48.7117 126.942 49.369 125.422 50.1906C124.054 51.0123 122.534 51.9161 121.089 52.902Z" fill="#0F0F11"/>
<path d="M153.295 51.2885C151.894 50.3447 150.659 49.0578 149.754 47.5135C149.341 46.7414 148.929 45.9692 148.682 45.1112C148.435 44.2533 148.188 43.3953 148.106 42.4516V42.1084L148.353 41.851C149.754 40.5641 151.318 39.363 152.883 38.4193C154.529 37.4755 156.259 36.6175 158.071 36.1028C161.695 34.9875 165.566 34.6443 169.189 35.4164C167.377 35.5022 165.566 35.7596 163.754 36.1028C161.941 36.446 160.213 36.9607 158.565 37.5613C156.918 38.2477 155.271 38.934 153.706 39.8777C152.142 40.8215 150.659 41.851 149.259 42.9664L149.507 42.3659C149.589 43.9959 149.918 45.6261 150.577 47.0845C151.235 48.6288 152.142 50.0874 153.295 51.2885Z" fill="#0F0F11"/>
<path d="M121.468 52.375C121.851 53.208 122.156 53.9484 122.537 54.7814C122.919 55.5218 123.377 56.2623 123.836 56.9101C124.293 57.558 124.751 58.2058 125.286 58.7612C125.82 59.3165 126.354 59.8718 126.966 60.4272L126.507 60.242C127.881 60.057 129.18 59.7793 130.554 59.4091C131.852 59.0388 133.226 58.5761 134.524 58.1133C135.822 57.558 137.12 57.0027 138.342 56.3548C139.639 55.707 140.86 54.9665 142.082 54.1335C141.089 55.3367 139.945 56.3548 138.723 57.2803C137.501 58.2058 136.279 59.0388 134.906 59.6868C133.608 60.3346 132.234 60.89 130.783 61.2601C129.408 61.6303 127.958 61.908 126.507 62.0006H126.202L125.973 61.8155C124.751 60.6123 123.759 59.224 122.919 57.6505C122.537 56.8175 122.156 55.9846 121.927 55.1516C121.773 54.226 121.621 53.3005 121.468 52.375Z" fill="#2F323F"/>
<path d="M153.126 51.2885C154.483 50.7602 155.84 50.2319 157.117 49.7036L161.108 48.1189C162.466 47.5906 163.743 47.0623 165.02 46.534C166.297 46.0057 167.654 45.3894 168.931 44.8612L168.531 45.4774C168.771 43.8046 168.851 42.0437 168.851 40.2828C168.851 39.4023 168.851 38.5218 168.771 37.6413C168.691 36.7609 168.612 35.8804 168.531 35C168.851 35.7924 169.091 36.6728 169.33 37.5534C169.569 38.4338 169.729 39.3143 169.809 40.1947C170.048 42.0437 170.048 43.8046 169.889 45.6535V46.0938L169.489 46.2699C168.212 46.9742 166.856 47.5906 165.579 48.1189C164.221 48.6471 162.864 49.1754 161.508 49.6157C160.15 50.0559 158.714 50.408 157.356 50.6721C155.92 51.0244 154.483 51.2004 153.126 51.2885Z" fill="#2F323F"/>
<path d="M141.994 50.2117C142.679 48.8102 143.895 47.7384 145.263 47.1613C146.631 46.5842 148.152 46.4194 149.596 46.914C148.152 47.0789 146.859 47.4086 145.567 47.9033C144.275 48.4804 143.135 49.2224 141.994 50.2117Z" fill="#0F0F11"/>
<path d="M86.6962 112.421C91.284 104.673 96.0974 100.694 98.7296 90.7821L115.276 116.61C115.727 125.824 115.803 130.222 116.028 138.948C116.329 152.49 116.103 155.771 116.028 157.098C115.576 163.101 114.373 171.756 110.763 182.228C111.289 179.924 111.666 176.433 110.763 172.454C109.335 166.172 105.348 162.263 103.994 160.588C102.644 158.949 101.527 156.71 101.039 153.557C101.24 155.602 101.384 158.085 100.985 162.681C100.835 164.427 100.535 166.87 101.738 169.663C103.242 173.292 106.326 175.456 108.507 176.643C104.295 176.922 98.2784 176.713 94.9692 173.153C91.5096 169.453 92.9386 164.218 93.465 156.399C93.841 150.675 93.9163 142.368 91.9608 131.968C92.5625 141.251 91.9608 148.86 91.2088 154.305C90.3814 160.378 89.3285 164.218 88.9524 165.474C87.3731 170.989 85.3424 175.526 83.6878 178.737C77.3702 162.263 77.5959 148.651 78.4232 141.042L78.4455 140.836C79.2699 133.251 80.3609 123.213 86.6962 112.421Z" fill="url(#paint0_linear_940_470)"/>
<path d="M184.468 138.948C178 128.686 179.354 118.564 180.707 102.649L198.757 90.084C203.496 103.906 207.332 104.743 211.543 120.101C214.231 129.871 214.918 137.922 215.295 142.341L215.304 142.438C216.055 151.373 216.657 158.843 214.552 168.266C212.672 176.573 209.438 182.995 207.031 187.114C208.385 184.321 210.791 178.248 210.039 170.361C209.287 162.473 205.827 156.888 204.022 154.305C205.151 157.726 206.955 164.846 204.473 173.013C203.872 175.107 202.519 179.365 198.757 183.623C194.17 188.789 188.68 191.093 185.972 192C188.003 186.416 189.958 180.831 191.989 175.246C193.794 170.221 195.523 162.961 193.493 155.003C191.613 147.534 187.476 143.764 184.468 138.948Z" fill="url(#paint1_linear_940_470)"/>
<path d="M104.454 126.079C104.077 118.176 104.83 113.555 105.208 111.344C105.208 113.006 107.8 99.4005 109 101.001C110.2 102.601 112.332 103.834 113.499 101.001C112.831 102.834 114.599 107.201 117 108.001L120.5 102.501C121.566 105.736 120.958 100.083 128 101.001C135.042 101.918 137.843 104.834 136.113 100.001C138.122 101.009 142.142 104.824 142.142 112.014C141.84 113.822 140.843 117.267 137 124.501C134.964 128.318 132.781 132.509 131.5 134.786C129.465 138.336 126.991 140.613 125.56 142.824C126.087 141.953 126.765 140.546 127.067 138.805C127.972 134.05 125.484 130.701 124.052 126.749C122.996 123.869 122.092 119.449 123.298 113.354C121.866 117.908 120.358 124.673 121.036 132.777C121.715 140.279 123.75 143.561 124.805 150.191C125.71 155.951 125.786 164.324 121.79 174.972C122.846 171.624 123.826 166.668 122.544 160.908C121.112 154.343 117.795 151.664 115.007 144.833C113.423 140.948 111.765 135.189 111.992 127.419C110.936 133.782 110.258 143.561 113.499 154.88C115.157 160.505 117.343 165.194 119.529 168.944C113.197 161.309 109.956 154.276 108.223 149.521C105.166 141.042 104.837 134.135 104.466 126.339L104.454 126.079Z" fill="url(#paint2_linear_940_470)"/>
<path d="M163.248 134.786C162.193 129.763 161.589 127.285 159.479 122.73C158.492 116.32 158.317 101.601 165.51 94.0005C168.84 94.1672 172.4 79.0011 176 91.0011C176 93.7288 190.467 95.6301 191.966 92.9461C191.678 91.4353 191.617 90.9806 192 92.0014C192.136 92.3645 192.116 92.6781 191.966 92.9461C192.807 97.355 195.582 110.758 194.907 122.73C194.756 126.414 194.379 132.241 192.646 139.475C190.912 146.641 190.007 150.191 187.369 153.54C182.319 159.903 176.666 159.97 175.309 165.596C174.932 167.136 175.083 169.28 175.309 173.633C175.459 176.714 175.836 179.259 176.062 181C174.555 179.929 172.444 178.188 170.785 175.643C166.866 169.481 168.223 162.782 169.278 158.229C170.785 151.664 172.821 150.459 175.309 143.493C177.645 136.796 178.248 131.035 178.324 127.419C176.967 131.236 174.555 137.197 170.785 144.163C168.373 148.517 167.244 150.124 165.51 153.54C163.399 157.759 160.76 164.189 159.479 172.964C159.404 170.016 159.404 165.864 160.233 160.908C160.912 156.621 161.891 153.406 162.494 151.531C167.244 136.26 169.656 132.777 170.785 127.419C171.992 121.86 171.916 113.488 165.51 101.967C163.701 107.861 163.324 112.684 163.248 116.033C163.173 119.516 163.173 122.596 164.002 126.749C164.982 131.371 166.339 133.513 165.51 136.796C164.831 139.541 163.098 141.551 161.741 142.824C162.268 142.087 162.872 140.948 163.248 139.475C163.775 137.331 163.399 135.59 163.248 134.786Z" fill="url(#paint3_linear_940_470)"/>
<path d="M113.971 191.74C116.546 188.855 118.439 185.667 119.196 181.87C120.105 177.391 118.59 176.556 119.953 169.723C121.089 164.029 122.603 162.51 125.254 153.02C127.071 146.491 126.465 146.946 127.525 144.669C130.554 138.139 133.886 138.291 137.369 131.762C137.748 131.003 138.505 129.636 139.641 129.484C140.928 129.332 142.67 130.699 142.67 132.521C142.67 133.888 141.761 135.102 140.398 135.558C140.625 135.558 141.837 135.482 142.67 136.317C143.427 137.076 143.427 138.215 143.427 138.595C143.427 139.885 142.745 140.417 141.912 142.391C141.534 143.302 141.307 144.137 141.155 144.669C142.064 145.276 143.351 146.263 143.427 147.705C143.503 148.996 142.518 149.983 141.912 150.742C141.307 151.426 140.019 153.703 137.369 158.335C136.46 159.853 134.567 163.194 133.583 167.445C132.674 171.241 133.204 172.684 132.826 175.797C132.22 181.263 129.721 185.211 127.147 189.083C125.027 192.348 122.755 194.777 120.256 197.055" fill="#F4A992"/>
<path d="M149.485 181.111C149.485 178.909 149.863 178.606 150.242 175.037C150.772 170.254 151.075 167.445 150.242 164.408C149.03 159.853 146.153 157.575 144.184 151.501C143.957 150.894 143.427 149.148 144.184 148.464C145.017 147.705 146.834 148.996 147.213 148.464C147.743 147.781 144.714 145.579 143.427 141.631C142.594 139.05 142.518 135.937 143.427 135.558C144.033 135.33 144.941 136.241 145.698 137.076C145.471 136.393 145.168 135.33 144.941 134.039C144.714 132.673 144.638 131.989 144.941 131.762C145.244 131.534 146.153 131.686 148.727 134.039C149.712 135.861 151.226 138.519 153.271 141.631C158.268 149.376 159.631 149.679 161.6 153.779C163.872 158.562 164.175 162.586 164.629 169.723C165.083 176.859 164.175 180.2 163.114 182.629C162.887 183.085 162.206 184.603 160.843 186.426C159.253 188.475 156.527 192.12 154.028 191.74C151.075 191.209 149.56 185.211 149.485 181.111Z" fill="#F4A992"/>
<path d="M224.903 282.165L74.6719 284.215C70.1286 284.29 66.4183 280.646 66.3426 276.091L65.131 188.477C65.0553 183.921 68.6899 180.201 73.2332 180.125L223.465 178.075C228.008 177.999 231.718 181.644 231.794 186.199L233.006 273.813C233.081 278.369 229.447 282.089 224.903 282.165Z" fill="#353C3E"/>
<path d="M220.587 279.507L78.9121 281.481C74.3688 281.557 70.6586 277.913 70.5828 273.357L69.5226 191.134C69.4469 186.578 73.0816 182.858 77.6249 182.782L219.3 180.808C223.843 180.732 227.553 184.377 227.629 188.932L228.765 271.156C228.765 275.787 225.13 279.507 220.587 279.507Z" fill="#374144"/>
<g clip-path="url(#clip1_940_470)">
<path d="M154.501 261.366C156.656 260.788 157.929 258.583 157.351 256.428L156.308 252.534L152.414 253.578C150.259 254.155 148.986 256.36 149.563 258.515C150.141 260.67 152.345 261.943 154.501 261.366Z" fill="#0ACF83"/>
<path d="M147.477 250.728C146.899 248.573 148.172 246.368 150.327 245.791L154.221 244.747L156.308 252.535L152.414 253.578C150.259 254.156 148.054 252.883 147.477 250.728Z" fill="#A259FF"/>
<path d="M145.39 242.941C144.813 240.786 146.085 238.581 148.241 238.004L152.134 236.96L154.221 244.748L150.327 245.791C148.172 246.369 145.968 245.096 145.39 242.941Z" fill="#F24E1E"/>
<path d="M152.134 236.959L156.028 235.916C158.183 235.338 160.388 236.611 160.965 238.766C161.543 240.921 160.27 243.126 158.115 243.703L154.221 244.747L152.134 236.959Z" fill="#FF7262"/>
<path d="M163.052 246.555C163.63 248.71 162.357 250.915 160.202 251.492C158.047 252.07 155.842 250.797 155.265 248.642C154.687 246.487 155.96 244.282 158.115 243.705C160.27 243.127 162.475 244.4 163.052 246.555Z" fill="#1ABCFE"/>
</g>
<g clip-path="url(#clip2_940_470)">
<path d="M191.174 234.359C189.559 229.751 185.381 227.392 179.868 228.869C174.355 230.346 171.962 234.681 172.897 239.474C173.441 242.267 175.116 244.437 177.541 245.28C179.138 245.836 181.161 245.839 184.22 245.02C187.332 244.186 188.936 243.036 190.043 241.765C191.889 239.649 192.103 237.006 191.174 234.359Z" fill="#FFC022"/>
<path d="M178.796 232.319C176.521 229.202 172.953 227.622 171.73 227.572C171.269 227.552 170.731 227.682 170.595 228.138C170.251 229.288 170.321 232.666 173.249 236.702L178.796 232.319Z" fill="#FFC022"/>
<path d="M175.202 231.654C175.418 231.346 175.493 231.082 175.06 230.691C174.389 230.084 173.307 229.456 172.905 229.283C172.246 228.997 171.787 228.965 171.812 229.702C171.857 231.064 172.346 232.798 172.924 233.672C173.127 233.981 173.523 234.067 173.728 233.761L175.202 231.654Z" fill="#FFD1D1"/>
<path d="M178.987 232.738C179.238 232.857 179.646 232.721 179.812 232.377C180.013 231.961 180.011 230.738 179.349 229.025C178.511 229.282 177.743 229.618 177.052 230.023C177.92 230.85 178.522 232.517 178.987 232.738ZM182.565 231.779C182.407 232.008 181.986 232.094 181.67 231.879C181.288 231.619 180.678 230.559 180.395 228.744C181.249 228.549 182.082 228.455 182.883 228.46C182.545 229.611 182.858 231.356 182.565 231.779Z" fill="#FF9B31"/>
<path d="M182.889 228.626C183.75 225.986 185.392 223.927 186.169 223.43C186.553 223.183 187.048 223.074 187.392 223.403C188.258 224.229 189.582 227.133 189.536 231.709L184.642 230.78L182.889 228.626Z" fill="#FFC022"/>
<path d="M186.523 229.402C187.081 229.724 187.519 229.923 187.853 230.134C188.075 230.275 188.367 230.105 188.351 229.842C188.222 227.586 187.593 225.802 187.162 225.404C186.956 225.215 186.67 225.228 186.446 225.377C186.043 225.642 185.142 226.784 184.676 228.223C184.622 228.391 184.707 228.574 184.874 228.632C185.212 228.749 185.813 228.99 186.523 229.402Z" fill="#FFD1D1"/>
<path d="M180.856 238.591C180.697 238.036 181.426 237.555 182.178 237.34C182.932 237.124 183.813 237.152 183.971 237.708C184.13 238.263 183.372 239.252 182.771 239.413C182.171 239.574 181.016 239.144 180.856 238.591Z" fill="black"/>
<path d="M171.66 239.75C171.742 239.808 172.476 239.599 174.507 239.971M171.546 242.077C171.546 242.077 172.6 241.36 174.695 241.179M173.074 243.498C173.074 243.498 173.503 243.115 175.26 242.476M192.167 233.572C192.167 233.572 191.565 233.797 189.95 235.397M192.981 235.485C192.981 235.485 192.041 235.667 190.169 236.621M193.136 237.493C193.136 237.493 192.178 237.418 190.35 237.803" stroke="#9E9E9E" stroke-width="0.375" stroke-miterlimit="10" stroke-linecap="round"/>
<path d="M187.624 234.568C187.83 235.582 187.357 236.297 186.653 236.486C185.948 236.675 185.19 236.125 184.958 235.259C184.726 234.393 185.129 233.522 185.932 233.354C186.864 233.16 187.456 233.739 187.624 234.568ZM178.525 236.897C178.938 237.875 178.677 238.609 178.007 238.942C177.337 239.275 176.603 238.961 176.194 238.139C175.783 237.315 175.905 236.407 176.678 236.074C177.574 235.688 178.186 236.097 178.525 236.897Z" fill="#000200"/>
<path d="M179.281 240.451C178.897 240.878 179.635 241.432 180.021 241.583C180.407 241.733 181.065 241.87 181.891 241.555C182.867 241.185 182.954 240.36 182.954 240.36C182.954 240.36 183.534 241.097 184.784 240.799C186.052 240.496 186.259 239.711 186.375 239.463C186.49 239.212 186.52 238.64 186.175 238.514C185.831 238.387 185.696 238.697 185.504 239.205C185.312 239.712 184.747 240.118 184.058 239.992C183.368 239.867 183.069 238.891 183.069 238.891L182.215 239.174C182.215 239.174 182.307 240.06 181.989 240.436C181.67 240.813 180.754 241.132 180.203 240.641C179.961 240.422 179.604 240.091 179.281 240.451Z" fill="black"/>
</g>
<g clip-path="url(#clip3_940_470)">
<path d="M224.566 223.915L220.773 222.626L221.376 227.062L223.282 227.7L224.566 223.915ZM217.937 221.658L216.035 221.011L216.652 225.443L218.544 226.085L217.937 221.658ZM213.213 220.04L211.302 219.41L211.918 223.842L213.811 224.484L213.213 220.04ZM208.461 218.451L207.517 218.125C207.015 217.955 206.466 217.991 205.991 218.226C205.516 218.46 205.153 218.874 204.982 219.375L204.34 221.268L209.069 222.878L208.461 218.451ZM204.34 221.268L199.34 229.928C199.075 230.387 199.003 230.933 199.14 231.446C199.278 231.958 199.613 232.395 200.072 232.66L213.929 240.66C214.89 241.215 216.106 240.889 216.661 239.928L221.661 231.268L204.34 221.268Z" fill="#89DED8"/>
</g>
<path d="M199.925 269.125L197.45 264.525L192.85 262.05L194.625 260.3L198.25 260.925L200.8 258.375L192.875 255L194.975 252.85L204.6 254.55L207.7 251.45C208.083 251.067 208.558 250.875 209.125 250.875C209.692 250.875 210.167 251.067 210.55 251.45C210.933 251.833 211.125 252.304 211.125 252.862C211.125 253.42 210.933 253.891 210.55 254.275L207.425 257.4L209.125 267L207 269.125L203.6 261.2L201.05 263.75L201.7 267.35L199.925 269.125Z" fill="#D2D2D2"/>
<path d="M180.5 265C180.102 265 179.721 264.842 179.439 264.561C179.158 264.279 179 263.898 179 263.5C179 263.102 179.158 262.721 179.439 262.439C179.721 262.158 180.102 262 180.5 262C180.898 262 181.279 262.158 181.561 262.439C181.842 262.721 182 263.102 182 263.5C182 263.898 181.842 264.279 181.561 264.561C181.279 264.842 180.898 265 180.5 265ZM177.5 261C177.102 261 176.721 260.842 176.439 260.561C176.158 260.279 176 259.898 176 259.5C176 259.102 176.158 258.721 176.439 258.439C176.721 258.158 177.102 258 177.5 258C177.898 258 178.279 258.158 178.561 258.439C178.842 258.721 179 259.102 179 259.5C179 259.898 178.842 260.279 178.561 260.561C178.279 260.842 177.898 261 177.5 261ZM172.5 261C172.102 261 171.721 260.842 171.439 260.561C171.158 260.279 171 259.898 171 259.5C171 259.102 171.158 258.721 171.439 258.439C171.721 258.158 172.102 258 172.5 258C172.898 258 173.279 258.158 173.561 258.439C173.842 258.721 174 259.102 174 259.5C174 259.898 173.842 260.279 173.561 260.561C173.279 260.842 172.898 261 172.5 261ZM169.5 265C169.102 265 168.721 264.842 168.439 264.561C168.158 264.279 168 263.898 168 263.5C168 263.102 168.158 262.721 168.439 262.439C168.721 262.158 169.102 262 169.5 262C169.898 262 170.279 262.158 170.561 262.439C170.842 262.721 171 263.102 171 263.5C171 263.898 170.842 264.279 170.561 264.561C170.279 264.842 169.898 265 169.5 265ZM175 256C172.613 256 170.324 256.948 168.636 258.636C166.948 260.324 166 262.613 166 265C166 267.387 166.948 269.676 168.636 271.364C170.324 273.052 172.613 274 175 274C175.398 274 175.779 273.842 176.061 273.561C176.342 273.279 176.5 272.898 176.5 272.5C176.5 272.11 176.35 271.76 176.11 271.5C175.88 271.23 175.73 270.88 175.73 270.5C175.73 270.102 175.888 269.721 176.169 269.439C176.451 269.158 176.832 269 177.23 269H179C180.326 269 181.598 268.473 182.536 267.536C183.473 266.598 184 265.326 184 264C184 259.58 179.97 256 175 256Z" fill="#FF9500"/>
<path d="M130.176 309.799C123.664 306.459 116.849 303.194 109.731 299.929C95.5708 293.476 81.8652 287.933 68.8411 283.226C66.8724 281.48 64.0707 279.051 60.5118 276.393C60.1332 276.09 53.394 271.231 48.3963 268.801C46.3519 267.814 29.466 259.994 15.0789 268.801C3.94782 275.634 1.37329 288.161 0.691794 291.578C0.313186 293.324 -2.48851 308.432 6.74951 321.187C13.1858 330.07 22.4239 333.487 28.7087 335.613C61.269 346.469 104.506 350.949 119.575 352.316C121.619 344.192 123.588 336.144 125.632 328.02C127.147 321.947 128.661 315.873 130.176 309.799Z" fill="#FF6250"/>
<path d="M155.921 316.634C160.086 313.977 165.765 310.56 172.58 306.764C177.426 304.031 185.755 299.476 196.811 294.617C213.166 287.404 213.924 289.074 221.799 283.988C228.084 279.964 229.825 277.458 237.7 273.358C243.076 270.549 244.818 270.322 249.058 267.285C252.769 264.627 253.98 262.957 257.388 261.97C259.129 261.439 261.174 261.211 266.474 261.97C273.062 262.881 276.772 263.413 280.104 265.007C289.039 269.335 295.4 281.71 293.734 293.098C292.295 302.816 285.405 308.89 280.861 312.838C276.394 316.786 272.456 318.684 267.232 321.189C248.225 330.3 238.76 334.855 233.914 337.133C212.485 347.231 212.939 349.357 200.597 353.836C188.405 358.315 177.804 359.986 171.065 360.669C171.444 355.354 171.52 345.712 167.279 334.855C163.947 326.276 159.253 320.202 155.921 316.634Z" fill="#FF6250"/>
<path d="M102.916 365.982C105.036 365.678 108.217 365.146 112.003 364.463C124.8 362.186 125.178 361.73 131.69 360.667C147.365 358.162 155.164 356.871 162.736 357.63C165.311 357.858 167.506 358.238 168.794 356.871C172.201 353.151 164.856 340.851 160.464 334.854C155.997 328.704 151.151 324.604 147.592 321.947C144.639 323.237 140.474 325.06 135.476 327.261C119.953 334.018 116.622 335.233 112.76 336.372C108.974 337.435 103.37 338.801 96.1011 339.409C98.3727 348.216 100.644 357.099 102.916 365.982Z" fill="#ED9B7C"/>
<path d="M166.522 365.223C167.355 365.451 169.324 365.906 171.822 365.223C176.896 363.857 179.092 359.149 179.394 358.39C178.713 353 177.426 348.9 176.366 346.243C173.867 339.713 171.974 339.106 168.036 330.299C166.295 326.427 165.765 324.529 163.493 320.429C160.843 315.646 158.874 313.292 155.921 312.078C154.406 311.47 153.119 311.318 152.135 311.318C146.986 314.127 143.502 317.088 142.291 318.911C141.004 320.885 140.777 322.707 140.777 322.707C140.701 323.314 140.701 323.846 140.777 324.225C141.382 323.542 142.518 322.631 143.805 322.707C144.563 322.707 146.001 323.162 148.349 327.262C150.09 330.299 150.923 332.804 151.378 334.095C153.271 339.41 156.224 343.206 159.707 347.761C161.524 350.115 163.493 352.316 165.007 356.112C165.462 357.175 166.825 360.592 165.765 361.427C165.386 361.731 164.856 361.579 164.25 361.427C160.616 360.364 158.344 358.238 158.192 358.39C158.041 358.542 160.843 363.857 166.522 365.223Z" fill="#E55747"/>
<path d="M96.8586 338.65C98.373 340.245 100.342 342.75 101.402 346.243C102.235 348.976 102.083 350.95 102.159 354.594C102.235 357.479 102.386 361.655 102.916 366.742C92.7696 367.273 84.5159 367.425 78.6854 367.501C57.1048 367.653 54.7574 366.286 48.3968 369.019C45.4436 370.31 42.0362 372.284 37.7958 371.297C34.2369 370.462 31.1323 367.653 29.4664 364.464C27.1948 359.985 29.6178 358.163 27.952 348.52C27.3462 344.8 26.7404 343.889 27.1948 341.687C27.8763 338.271 30.4508 334.627 34.0097 333.336C36.1299 332.577 36.5842 333.336 40.0674 332.577C43.172 331.893 44.3835 330.906 46.1251 330.299C50.0627 328.932 53.5458 330.527 58.9978 332.577C58.9978 332.577 67.63 335.765 75.6565 337.891C80.427 339.106 87.4691 340.093 96.8586 338.65Z" fill="#006E90"/>
</g>
<defs>
<linearGradient id="paint0_linear_940_470" x1="147" y1="90.084" x2="147" y2="192" gradientUnits="userSpaceOnUse">
<stop offset="0.402885" stop-color="#251C1B"/>
<stop offset="1" stop-color="#FF6250"/>
</linearGradient>
<linearGradient id="paint1_linear_940_470" x1="147" y1="90.084" x2="147" y2="192" gradientUnits="userSpaceOnUse">
<stop offset="0.402885" stop-color="#251C1B"/>
<stop offset="1" stop-color="#FF6250"/>
</linearGradient>
<linearGradient id="paint2_linear_940_470" x1="149.677" y1="94" x2="149.677" y2="181" gradientUnits="userSpaceOnUse">
<stop offset="0.321154" stop-color="#251C1B"/>
<stop offset="1" stop-color="#FF6250"/>
</linearGradient>
<linearGradient id="paint3_linear_940_470" x1="149.677" y1="94" x2="149.677" y2="181" gradientUnits="userSpaceOnUse">
<stop offset="0.321154" stop-color="#251C1B"/>
<stop offset="1" stop-color="#FF6250"/>
</linearGradient>
<clipPath id="clip0_940_470">
<rect width="294" height="388" fill="white"/>
</clipPath>
<clipPath id="clip1_940_470">
<rect width="24" height="24" fill="white" transform="translate(140 240.211) rotate(-15)"/>
</clipPath>
<clipPath id="clip2_940_470">
<rect width="24" height="24" fill="white" transform="translate(167 227.211) rotate(-15)"/>
</clipPath>
<clipPath id="clip3_940_470">
<rect width="24" height="24" fill="white" transform="translate(207.608 211.607) rotate(30)"/>
</clipPath>
</defs>
</svg>
