<svg width="60" height="60" viewBox="0 0 60 60" fill="none" xmlns="http://www.w3.org/2000/svg">
<path d="M51.5625 6.5625H8.4375C7.40039 6.5625 6.5625 7.40039 6.5625 8.4375V51.5625C6.5625 52.5996 7.40039 53.4375 8.4375 53.4375H51.5625C52.5996 53.4375 53.4375 52.5996 53.4375 51.5625V8.4375C53.4375 7.40039 52.5996 6.5625 51.5625 6.5625ZM35.0684 20.5605H43.1777V22.5352H35.0684V20.5605ZM30 36.8437C29.6207 37.5637 29.0791 38.1856 28.418 38.6602C27.7266 39.1406 26.959 39.4922 26.1445 39.6973C25.2924 39.9256 24.4134 40.0379 23.5313 40.0313H13.8281V20.0449H23.2617C24.2168 20.0449 25.084 20.1328 25.875 20.2969C26.6602 20.4609 27.3281 20.7422 27.8906 21.123C28.4473 21.5039 28.8867 22.0137 29.1973 22.6465C29.502 23.2734 29.6602 24.0586 29.6602 24.9902C29.6602 25.998 29.4316 26.8301 28.9746 27.5039C28.5117 28.1777 27.8438 28.7227 26.9355 29.1504C28.1719 29.502 29.0801 30.1289 29.6777 31.0078C30.2871 31.8984 30.5859 32.9648 30.5859 34.2188C30.5859 35.2383 30.3926 36.1113 30 36.8437ZM46.3359 33.75H35.8828C35.8828 34.8867 36.2754 35.9766 36.8672 36.5625C37.4648 37.1426 38.3203 37.4355 39.4395 37.4355C40.248 37.4355 40.9336 37.2305 41.5195 36.8262C42.0996 36.4219 42.4512 35.9941 42.5801 35.5488H46.084C45.5215 37.2891 44.666 38.5313 43.5059 39.2813C42.3574 40.0313 40.9512 40.4062 39.3164 40.4062C38.1738 40.4062 37.1484 40.2187 36.2285 39.8613C35.3437 39.5156 34.5469 38.9883 33.8906 38.3086C33.2436 37.6106 32.7434 36.7896 32.4199 35.8945C32.0625 34.9043 31.8867 33.8613 31.8984 32.8125C31.8984 31.7285 32.0801 30.7207 32.4316 29.7832C33.1055 27.9609 34.5059 26.502 36.293 25.7461C37.248 25.3477 38.2734 25.1484 39.3105 25.1602C40.541 25.1602 41.6074 25.3945 42.5332 25.875C43.4245 26.3338 44.1983 26.9914 44.7949 27.7969C45.3867 28.5996 45.8027 29.5137 46.0664 30.5449C46.3184 31.5586 46.4062 32.625 46.3359 33.75V33.75ZM39.1875 28.1484C38.5547 28.1484 38.0215 28.2598 37.6113 28.4766C37.2012 28.6934 36.8613 28.9629 36.6035 29.2734C36.358 29.5733 36.1765 29.9203 36.0703 30.293C35.9766 30.6035 35.9121 30.9199 35.8887 31.2422H42.3633C42.2695 30.2285 41.918 29.4785 41.4492 28.9512C40.957 28.4297 40.166 28.1484 39.1875 28.1484V28.1484ZM24.627 27.5566C25.1367 27.1875 25.3828 26.5781 25.3828 25.7402C25.4004 25.3418 25.3184 24.9492 25.1426 24.5918C24.9844 24.3047 24.75 24.0645 24.4629 23.8945C24.1652 23.714 23.8346 23.5945 23.4902 23.543C23.1152 23.4727 22.7344 23.4375 22.3594 23.4434H18.2402V28.1133H22.6992C23.4668 28.1191 24.1172 27.9316 24.627 27.5566V27.5566ZM25.3184 31.7754C24.7441 31.3359 23.9766 31.1191 23.0215 31.1191H18.2285V36.627H22.9277C23.3672 36.627 23.7715 36.5859 24.1641 36.5039C24.5566 36.4219 24.9082 36.2812 25.207 36.082C25.5059 35.8887 25.7461 35.625 25.9277 35.2852C26.1035 34.9453 26.1914 34.5117 26.1914 33.9902C26.1914 32.9531 25.8984 32.2207 25.3184 31.7754V31.7754Z" fill="white"/>
</svg>
