<svg width="72" height="72" viewBox="0 0 72 72" fill="none" xmlns="http://www.w3.org/2000/svg">
<path d="M50.0179 12.7857H46.8568C46.4649 11.6783 45.7394 10.7195 44.78 10.0415C43.8207 9.36354 42.6747 8.99966 41.5 9H30.1429C28.9681 8.99966 27.8222 9.36354 26.8628 10.0415C25.9035 10.7195 25.1779 11.6783 24.7861 12.7857H21.625C19.8679 12.7857 18.1828 13.4837 16.9404 14.7261C15.698 15.9686 15 17.6537 15 19.4107V55.375C15 57.1321 15.698 58.8172 16.9404 60.0596C18.1828 61.302 19.8679 62 21.625 62H50.0179C51.7749 62 53.46 61.302 54.7024 60.0596C55.9449 58.8172 56.6429 57.1321 56.6429 55.375V19.4107C56.6429 17.6537 55.9449 15.9686 54.7024 14.7261C53.46 13.4837 51.7749 12.7857 50.0179 12.7857ZM30.1429 12.7857H41.5C42.002 12.7857 42.4835 12.9851 42.8385 13.3401C43.1934 13.6951 43.3929 14.1766 43.3929 14.6786C43.3929 15.1806 43.1934 15.662 42.8385 16.017C42.4835 16.372 42.002 16.5714 41.5 16.5714H30.1429C29.6408 16.5714 29.1594 16.372 28.8044 16.017C28.4494 15.662 28.25 15.1806 28.25 14.6786C28.25 14.1766 28.4494 13.6951 28.8044 13.3401C29.1594 12.9851 29.6408 12.7857 30.1429 12.7857ZM25.4107 27.9286C26.1637 27.9286 26.8859 28.2277 27.4184 28.7602C27.9509 29.2926 28.25 30.0148 28.25 30.7679V47.8036C28.25 48.5566 27.9509 49.2788 27.4184 49.8112C26.8859 50.3437 26.1637 50.6429 25.4107 50.6429C24.6577 50.6429 23.9355 50.3437 23.403 49.8112C22.8706 49.2788 22.5714 48.5566 22.5714 47.8036V30.7679C22.5714 30.0148 22.8706 29.2926 23.403 28.7602C23.9355 28.2277 24.6577 27.9286 25.4107 27.9286ZM32.9821 34.5536C32.9821 33.8005 33.2813 33.0784 33.8137 32.5459C34.3462 32.0134 35.0684 31.7143 35.8214 31.7143C36.5745 31.7143 37.2966 32.0134 37.8291 32.5459C38.3616 33.0784 38.6607 33.8005 38.6607 34.5536V47.8036C38.6607 48.5566 38.3616 49.2788 37.8291 49.8112C37.2966 50.3437 36.5745 50.6429 35.8214 50.6429C35.0684 50.6429 34.3462 50.3437 33.8137 49.8112C33.2813 49.2788 32.9821 48.5566 32.9821 47.8036V34.5536ZM46.2321 39.2857C46.9852 39.2857 47.7073 39.5849 48.2398 40.1173C48.7723 40.6498 49.0714 41.372 49.0714 42.125V47.8036C49.0714 48.5566 48.7723 49.2788 48.2398 49.8112C47.7073 50.3437 46.9852 50.6429 46.2321 50.6429C45.4791 50.6429 44.7569 50.3437 44.2245 49.8112C43.692 49.2788 43.3929 48.5566 43.3929 47.8036V42.125C43.3929 41.372 43.692 40.6498 44.2245 40.1173C44.7569 39.5849 45.4791 39.2857 46.2321 39.2857Z" fill="#F16A70"/>
</svg>
