<svg width="32" height="32" viewBox="0 0 32 32" fill="none" xmlns="http://www.w3.org/2000/svg">
<g clip-path="url(#clip0_1020_1458)">
<path d="M9.77962 4.48779C7.90604 5.46141 6.28665 6.86048 5.05131 8.57283C3.81597 10.2852 2.99903 12.2632 2.66602 14.3482H3.44902C8.49802 14.2312 12.4562 13.7938 15.689 12.8038C14.285 10.3144 12.5714 7.87179 10.5158 5.38779L10.514 5.38599L9.77962 4.48779V4.48779Z" fill="#FBFBFB"/>
<path d="M2.5036 16.1483L2.5 16.4723C2.5 20.1029 3.9328 23.3987 6.2638 25.8251L6.5536 25.2419C6.5697 25.2096 6.58773 25.1783 6.6076 25.1483C9.592 20.6087 12.9688 17.9087 16.7452 16.6973C17.0008 16.6145 17.26 16.5389 17.5192 16.4705C17.2168 15.7773 16.8945 15.093 16.5526 14.4185C13.0156 15.5579 8.764 16.0259 3.4792 16.1465H2.5054L2.5036 16.1483Z" fill="#FBFBFB"/>
<path d="M7.64844 27.0795C10.0268 28.9576 12.97 29.9769 16.0004 29.9721C17.6078 29.9721 19.1504 29.6913 20.5778 29.1765V27.8805C20.1386 24.3975 19.3664 21.2025 18.2054 18.1533C17.8994 18.2289 17.5952 18.3153 17.2946 18.4107C14.015 19.4637 10.9496 21.8361 8.14164 26.0931L7.65024 27.0795H7.64844Z" fill="#FBFBFB"/>
<path d="M22.3776 28.3738C24.1176 27.4401 25.632 26.1367 26.8143 24.5551C27.9966 22.9735 28.8181 21.1521 29.2212 19.219L28.2042 18.76C25.2774 17.8996 22.5504 17.5468 20.0088 17.833C21.1572 20.929 21.9294 24.1798 22.3704 27.7114C22.3758 27.7474 22.3776 27.7834 22.3776 27.823V28.3738V28.3738Z" fill="#FBFBFB"/>
<path d="M29.4715 17.3578C29.7091 13.822 28.5415 10.3354 26.2225 7.65576L25.6879 8.24796C23.5819 10.8094 21.1771 12.586 18.2539 13.7956C18.6355 14.5588 18.9919 15.3274 19.3213 16.1068C22.3309 15.6748 25.4953 16.0816 28.7731 17.0518C28.8131 17.0634 28.8522 17.0779 28.8901 17.095L29.4715 17.3578Z" fill="#FBFBFB"/>
<path d="M24.9563 6.37058C22.489 4.17685 19.3011 2.96726 15.9995 2.97218C14.4191 2.97218 12.9035 3.24218 11.4941 3.74258L11.9045 4.24298C14.1005 6.89438 15.9221 9.51518 17.4089 12.1954C20.1863 11.074 22.3877 9.43418 24.3101 7.08878C24.3189 7.07776 24.3279 7.06696 24.3371 7.05638L24.9563 6.37238V6.37058Z" fill="#FBFBFB"/>
</g>
<defs>
<clipPath id="clip0_1020_1458">
<rect width="27" height="27" fill="white" transform="translate(2.5 2.97217)"/>
</clipPath>
</defs>
</svg>
