<svg width="71" height="72" viewBox="0 0 71 72" fill="none" xmlns="http://www.w3.org/2000/svg">
<path d="M48.1306 10H23.6988C22.0788 10 20.5253 10.7112 19.3798 11.977C18.2343 13.2429 17.5908 14.9598 17.5908 16.75V57.25C17.5908 59.0402 18.2343 60.7571 19.3798 62.023C20.5253 63.2888 22.0788 64 23.6988 64H48.1306C49.7505 64 51.3041 63.2888 52.4496 62.023C53.595 60.7571 54.2386 59.0402 54.2386 57.25V16.75C54.2386 14.9598 53.595 13.2429 52.4496 11.977C51.3041 10.7112 49.7505 10 48.1306 10V10ZM31.7796 29.0552C31.9216 28.8984 32.0901 28.7739 32.2756 28.689C32.4611 28.6041 32.6599 28.5604 32.8607 28.5604C33.0615 28.5604 33.2603 28.6041 33.4458 28.689C33.6313 28.7739 33.7998 28.8984 33.9418 29.0552C34.0838 29.2121 34.1964 29.3984 34.2732 29.6034C34.3501 29.8084 34.3896 30.0281 34.3896 30.25C34.3896 30.4719 34.3501 30.6916 34.2732 30.8966C34.1964 31.1016 34.0838 31.2879 33.9418 31.4448L28.9119 37L33.9418 42.5552C34.2285 42.8721 34.3896 43.3019 34.3896 43.75C34.3896 44.1981 34.2285 44.6279 33.9418 44.9448C33.6551 45.2616 33.2662 45.4396 32.8607 45.4396C32.4552 45.4396 32.0663 45.2616 31.7796 44.9448L25.6716 38.1948C25.5294 38.038 25.4166 37.8518 25.3396 37.6468C25.2627 37.4417 25.223 37.222 25.223 37C25.223 36.778 25.2627 36.5583 25.3396 36.3532C25.4166 36.1482 25.5294 35.962 25.6716 35.8052L31.7796 29.0552V29.0552ZM40.0498 29.0552L46.1577 35.8052C46.2999 35.962 46.4128 36.1482 46.4897 36.3532C46.5667 36.5583 46.6063 36.778 46.6063 37C46.6063 37.222 46.5667 37.4417 46.4897 37.6468C46.4128 37.8518 46.2999 38.038 46.1577 38.1948L40.0498 44.9448C39.9078 45.1016 39.7393 45.2261 39.5538 45.311C39.3683 45.3959 39.1694 45.4396 38.9687 45.4396C38.7679 45.4396 38.5691 45.3959 38.3836 45.311C38.1981 45.2261 38.0295 45.1016 37.8876 44.9448C37.7456 44.7879 37.633 44.6016 37.5561 44.3966C37.4793 44.1916 37.4397 43.9719 37.4397 43.75C37.4397 43.5281 37.4793 43.3084 37.5561 43.1034C37.633 42.8984 37.7456 42.7121 37.8876 42.5552L42.9175 37L37.8876 31.4448C37.6008 31.1279 37.4397 30.6981 37.4397 30.25C37.4397 29.8019 37.6008 29.3721 37.8876 29.0552C38.1743 28.7384 38.5632 28.5604 38.9687 28.5604C39.3742 28.5604 39.763 28.7384 40.0498 29.0552V29.0552Z" fill="#F16A70"/>
</svg>
