<svg width="60" height="60" viewBox="0 0 60 60" fill="none" xmlns="http://www.w3.org/2000/svg">
<path fill-rule="evenodd" clip-rule="evenodd" d="M30 4C15.635 4 4 15.635 4 30C4 41.505 11.4425 51.2225 21.7775 54.6675C23.0775 54.895 23.565 54.115 23.565 53.4325C23.565 52.815 23.5325 50.7675 23.5325 48.59C17 49.7925 15.31 46.9975 14.79 45.535C14.4975 44.7875 13.23 42.48 12.125 41.8625C11.215 41.375 9.915 40.1725 12.0925 40.14C14.14 40.1075 15.6025 42.025 16.09 42.805C18.43 46.7375 22.1675 45.6325 23.6625 44.95C23.89 43.26 24.5725 42.1225 25.32 41.4725C19.535 40.8225 13.49 38.58 13.49 28.635C13.49 25.8075 14.4975 23.4675 16.155 21.6475C15.895 20.9975 14.985 18.3325 16.415 14.7575C16.415 14.7575 18.5925 14.075 23.565 17.4225C25.645 16.8375 27.855 16.545 30.065 16.545C32.275 16.545 34.485 16.8375 36.565 17.4225C41.5375 14.0425 43.715 14.7575 43.715 14.7575C45.145 18.3325 44.235 20.9975 43.975 21.6475C45.6325 23.4675 46.64 25.775 46.64 28.635C46.64 38.6125 40.5625 40.8225 34.7775 41.4725C35.72 42.285 36.5325 43.845 36.5325 46.2825C36.5325 49.76 36.5 52.555 36.5 53.4325C36.5 54.115 36.9875 54.9275 38.2875 54.6675C43.4489 52.9249 47.9339 49.6076 51.1113 45.1826C54.2887 40.7576 55.9984 35.4476 56 30C56 15.635 44.365 4 30 4Z" fill="white"/>
</svg>
