<svg width="60" height="60" viewBox="0 0 60 60" fill="none" xmlns="http://www.w3.org/2000/svg">
<path d="M52.3551 20.782C52.3299 18.8925 51.9756 17.0218 51.308 15.2536C50.7292 13.7622 49.845 12.4076 48.7121 11.2766C47.5792 10.1456 46.2224 9.26291 44.7285 8.685C42.9801 8.02977 41.133 7.67548 39.2659 7.63721C36.862 7.52994 36.0998 7.5 29.9975 7.5C23.8952 7.5 23.1131 7.5 20.7266 7.63721C18.8603 7.67576 17.0141 8.03005 15.2665 8.685C13.7724 9.2625 12.4154 10.145 11.2824 11.2761C10.1494 12.4072 9.26544 13.7619 8.68697 15.2536C8.02934 16.9978 7.67523 18.8413 7.63994 20.7046C7.53249 23.1071 7.5 23.8679 7.5 29.9601C7.5 36.0522 7.5 36.8306 7.63994 39.2155C7.67742 41.0816 8.02976 42.9227 8.68697 44.6715C9.26641 46.1628 10.1511 47.517 11.2844 48.6476C12.4178 49.7782 13.7749 50.6603 15.269 51.2377C17.0119 51.9192 18.8584 52.2989 20.7291 52.3603C23.1356 52.4676 23.8977 52.5 30 52.5C36.1023 52.5 36.8844 52.5 39.2709 52.3603C41.1379 52.3236 42.9851 51.9701 44.7335 51.315C46.227 50.7364 47.5835 49.8535 48.7163 48.7226C49.8491 47.5916 50.7335 46.2375 51.313 44.7464C51.9702 43.0001 52.3226 41.1589 52.3601 39.2904C52.4675 36.8905 52.5 36.1296 52.5 30.0349C52.495 23.9428 52.495 23.1694 52.3551 20.782V20.782ZM29.9825 41.4808C23.6003 41.4808 18.4301 36.3192 18.4301 29.9476C18.4301 23.5761 23.6003 18.4145 29.9825 18.4145C33.0464 18.4145 35.9848 19.6296 38.1513 21.7924C40.3178 23.9553 41.5349 26.8888 41.5349 29.9476C41.5349 33.0064 40.3178 35.9399 38.1513 38.1028C35.9848 40.2657 33.0464 41.4808 29.9825 41.4808V41.4808ZM41.9947 20.6772C41.6408 20.6775 41.2904 20.6082 40.9634 20.4731C40.6364 20.3381 40.3393 20.14 40.0891 19.8902C39.8389 19.6404 39.6405 19.3438 39.5053 19.0174C39.37 18.691 39.3005 18.3411 39.3009 17.9879C39.3009 17.6349 39.3705 17.2853 39.5058 16.9592C39.6411 16.633 39.8395 16.3367 40.0895 16.0871C40.3395 15.8375 40.6364 15.6395 40.963 15.5044C41.2897 15.3693 41.6398 15.2998 41.9934 15.2998C42.347 15.2998 42.6971 15.3693 43.0238 15.5044C43.3505 15.6395 43.6473 15.8375 43.8973 16.0871C44.1474 16.3367 44.3457 16.633 44.481 16.9592C44.6163 17.2853 44.686 17.6349 44.686 17.9879C44.686 19.4747 43.4815 20.6772 41.9947 20.6772Z" fill="white"/>
<path d="M29.986 37.4545C34.1323 37.4545 37.4935 34.0932 37.4935 29.947C37.4935 25.8007 34.1323 22.4395 29.986 22.4395C25.8397 22.4395 22.4785 25.8007 22.4785 29.947C22.4785 34.0932 25.8397 37.4545 29.986 37.4545Z" fill="white"/>
</svg>
