<svg width="60" height="60" viewBox="0 0 60 60" fill="none" xmlns="http://www.w3.org/2000/svg">
<path d="M49.8958 7.5H8.22917C7.5385 7.5 6.87612 7.77437 6.38774 8.26274C5.89937 8.75112 5.625 9.4135 5.625 10.1042V51.7708C5.625 52.4615 5.89937 53.1239 6.38774 53.6123C6.87612 54.1006 7.5385 54.375 8.22917 54.375H49.8958C50.5865 54.375 51.2489 54.1006 51.7373 53.6123C52.2256 53.1239 52.5 52.4615 52.5 51.7708V10.1042C52.5 9.4135 52.2256 8.75112 51.7373 8.26274C51.2489 7.77437 50.5865 7.5 49.8958 7.5V7.5ZM19.5286 47.4401H12.5703V25.0703H19.5286V47.4401ZM16.0495 22.0156C14.9803 22.0156 13.955 21.5909 13.199 20.8349C12.4429 20.0789 12.0182 19.0535 12.0182 17.9844C12.0182 16.9152 12.4429 15.8899 13.199 15.1339C13.955 14.3778 14.9803 13.9531 16.0495 13.9531C17.1186 13.9531 18.144 14.3778 18.9 15.1339C19.656 15.8899 20.0807 16.9152 20.0807 17.9844C20.0807 19.0535 19.656 20.0789 18.9 20.8349C18.144 21.5909 17.1186 22.0156 16.0495 22.0156V22.0156ZM45.5677 47.4401H38.6172V36.5625C38.6172 33.9688 38.5703 30.6328 35.0026 30.6328C31.3828 30.6328 30.8333 33.4609 30.8333 36.3802V47.4427H23.888V25.0729H30.5547V28.1302H30.651C31.5755 26.3724 33.8464 24.5182 37.224 24.5182C44.2656 24.5182 45.5651 29.1484 45.5651 35.1745V47.4401H45.5677Z" fill="white"/>
</svg>
