<svg width="60" height="60" viewBox="0 0 60 60" fill="none" xmlns="http://www.w3.org/2000/svg">
<path fill-rule="evenodd" clip-rule="evenodd" d="M7.5625 6.51025C7.01022 6.51025 6.5625 6.95797 6.5625 7.51025V52.3853C6.5625 52.9375 7.01022 53.3853 7.5625 53.3853H52.4375C52.9898 53.3853 53.4375 52.9375 53.4375 52.3853V7.51025C53.4375 6.95797 52.9898 6.51025 52.4375 6.51025H7.5625ZM21.2471 41.7162C27.5806 41.7162 32.7125 36.2558 32.7125 29.5217C32.7104 27.9179 32.4123 26.3303 31.835 24.8495C31.2577 23.3686 30.4125 22.0236 29.3479 20.8912C28.2832 19.7588 27.0198 18.8612 25.6298 18.2497C24.2399 17.6382 22.7506 17.3247 21.2471 17.3272C14.9161 17.3272 9.78424 22.7849 9.78424 29.5217C9.78624 31.1253 10.0843 32.7127 10.6615 34.1933C11.2386 35.674 12.0835 37.0189 13.1479 38.1513C14.2124 39.2836 15.4755 40.1813 16.8651 40.7929C18.2548 41.4046 19.7438 41.7183 21.2471 41.7162ZM39.5566 41.0008C42.7221 41.0008 45.288 35.8629 45.288 29.5217C45.288 23.1833 42.7221 18.0426 39.5566 18.0426C36.3911 18.0426 33.8252 23.1806 33.8252 29.5217C33.8252 35.8601 36.3911 41.0008 39.5566 41.0008ZM48.4154 39.8057C49.5307 39.8057 50.4326 35.2016 50.4326 29.5217C50.4326 23.8418 49.5307 19.2377 48.418 19.2377C47.3027 19.2377 46.4008 23.8418 46.4008 29.5217C46.4008 35.1989 47.3027 39.8057 48.4154 39.8057Z" fill="white"/>
</svg>
