<svg width="294" height="388" viewBox="0 0 294 388" fill="none" xmlns="http://www.w3.org/2000/svg">
<path d="M120.332 57.7385C124.875 56.2201 131.16 64.116 133.962 67.6084C137.369 71.8601 147.44 84.4631 142.291 95.6996C138.581 103.823 127.677 109.517 121.846 106.329C120.937 105.797 118.06 103.975 116.546 90.3851C115.788 83.628 113.214 60.0921 120.332 57.7385Z" fill="#0F0F11"/>
<path d="M173.337 362.946C173.791 363.857 176.668 363.781 182.423 363.705C191.888 363.553 197.87 362.263 203.625 361.427C211.955 360.289 218.012 360.44 227.856 360.668C241.41 361.048 248.225 361.2 251.33 362.946C252.541 363.629 255.419 365.451 258.145 364.464C260.114 363.781 261.401 361.731 261.931 359.909C262.84 356.568 260.644 354.67 258.902 348.521C257.463 343.358 258.372 342.523 257.388 340.169C254.359 333.26 242.168 332.122 238.457 331.818C208.093 329.085 170.914 357.783 173.337 362.946Z" fill="#40244C"/>
<path d="M167.279 357.631C166.598 356.872 165.31 356.872 162.736 356.872C159.934 356.872 157.662 356.872 157.435 357.631C157.284 358.239 158.571 359.074 161.221 360.668C164.175 362.49 165.613 363.401 166.522 362.946C168.036 362.187 168.566 358.998 167.279 357.631Z" fill="#331F1D" stroke="#1C0101" stroke-width="0.25" stroke-miterlimit="10"/>
<path d="M75.6562 280.19C85.8786 265.689 103.446 272.902 183.938 272.598C219.073 272.446 233.99 271.004 239.972 280.95C246.938 292.566 237.397 312.685 226.342 324.225C207.639 343.661 180.152 343.13 144.563 342.447C110.867 341.763 90.2704 341.384 78.6851 325.744C69.6742 313.596 66.5696 292.945 75.6562 280.19Z" fill="#BE5458"/>
<path d="M132.069 80.1357C132.977 81.3504 135.4 85.0706 135.097 90.0056C134.795 95.7757 131.009 99.4958 129.797 100.635C126.768 103.368 124.572 103.216 124.496 104.431C124.345 107.392 136.839 110.732 146.456 112.023C157.965 113.617 164.099 112.099 166.9 111.264C169.096 110.58 178.032 107.923 178.259 103.672C178.334 102.305 176.82 100.483 173.715 96.8386C170.384 92.8906 169.475 92.511 168.415 90.7648C167.203 88.639 166.219 85.1465 167.658 79.3765C155.769 79.6042 143.957 79.832 132.069 80.1357Z" fill="#CE6C52"/>
<path d="M116.167 26.6103C116.546 25.8511 116.848 25.3196 117 25.0159C117.757 23.7252 122.755 14.8423 132.144 11.3499C143.881 7.02235 155.542 13.7035 159.858 16.2089C160.994 16.8163 165.007 19.2458 169.096 23.4215C174.775 29.2675 177.274 35.1895 178.334 37.9227C179.016 39.8207 180.53 44.1483 180.833 49.9943C181.06 53.8663 181.515 71.5562 169.096 81.8057C167.658 82.9445 164.326 85.7537 159.025 87.1962C154.255 88.4869 150.242 88.1073 147.288 87.8795C143.957 87.5758 137.672 86.9684 131.311 83.1723C123.209 78.3133 119.802 71.2525 117 65.2547C115.334 61.6863 112.532 55.6126 112.835 47.5648C112.911 45.2112 113.214 45.6667 113.668 41.1114C114.274 34.5821 113.971 31.2415 116.167 26.6103Z" fill="#F4A992"/>
<path d="M120.256 197.056C117.076 200.017 113.593 202.75 109.731 206.546C87.9989 227.956 84.97 229.854 77.9279 238.433C75.3534 241.546 73.4603 243.52 69.5985 247.544C59.3004 258.173 57.1802 258.325 55.9687 258.173C51.3496 257.414 48.7751 249.67 46.8821 243.748C46.2006 241.546 44.9133 237.143 44.6104 230.841C44.459 227.121 44.6104 223.325 46.8821 211.101C48.8508 200.396 49.9109 195.006 51.4254 189.843C54.7571 178.683 56.8016 177.696 58.9975 168.585C61.1934 159.55 59.679 158.867 61.2692 149.604C62.935 139.962 65.8882 122.956 77.9279 115.439C79.4423 114.528 84.4399 112.782 94.5866 109.366C97.3883 108.379 102.083 105.797 108.974 104.81C110.412 104.583 111.624 104.507 112.381 104.431C116.319 105.721 124.194 108.834 126.768 115.819C129.191 122.424 125.178 129.029 117.682 142.392C115.259 146.719 109.049 157.272 97.9941 169.724C85.5 183.845 80.5781 188.704 80.5781 188.704C77.7764 191.513 71.5673 197.511 69.2199 206.926C68.3113 210.57 68.7656 211.633 69.2199 212.24C73.2332 217.175 94.4352 205.407 95.7224 204.648C102.31 200.928 109.277 196.98 113.971 191.741" fill="#F4A992"/>
<path d="M207.79 115.06C209.835 114.528 212.939 115.971 219.148 118.856C227.251 122.652 231.264 124.55 234.293 127.967C238.154 132.294 238.912 136.925 240.35 145.429C241.562 152.945 241.259 156.969 241.108 173.52C241.108 176.101 241.108 181.568 241.108 192.5C241.108 211.709 241.335 214.062 241.108 222.869C240.729 239.572 239.669 245.798 236.564 252.479C232.551 261.058 228.765 262.653 227.478 263.108C221.874 265.006 214.681 262.045 210.819 257.794C199.991 245.95 218.997 228.791 213.848 195.537C210.516 173.824 204.004 158.335 204.004 158.335C201.657 152.641 199.309 148.162 198.704 140.873C197.871 130.472 200.9 116.958 207.79 115.06Z" fill="#F4A992"/>
<path d="M111.624 105.19C112.457 104.886 114.956 103.899 118.439 102.912C122.831 101.622 126.541 101.014 129.04 100.635C128.586 101.394 128.056 102.457 128.283 103.672C129.267 109.062 144.714 111.188 155.542 110.505C162.585 110.049 168.491 108.379 172.958 106.708C177.426 105.342 180.076 103.064 179.773 101.394C179.546 100.027 177.35 99.344 176.744 99.1162C178.486 99.7236 181.136 100.711 184.317 102.153C189.996 104.734 192.419 106.633 198.704 109.745C201.96 111.34 204.307 112.403 207.033 113.541C221.572 119.767 224.449 118.78 229.75 122.652C235.58 126.904 238.23 132.598 239.593 135.559C244.439 145.96 243.152 155.982 242.622 160.613C242.395 162.587 242.092 164.106 241.865 165.169C235.429 166.459 228.387 167.522 220.663 168.205C215.59 168.661 210.819 168.889 206.276 168.965C206.579 171.318 206.806 174.811 206.276 178.835C205.367 185.895 202.641 191.665 200.975 194.019C195.296 202.143 181.061 200.776 163.872 200.093C116.319 198.271 103.143 204.344 94.2081 194.019C85.0458 183.466 84.3643 171.242 84.3643 171.242C84.2885 169.648 84.2885 168.357 84.3643 167.446C79.9724 167.826 73.839 167.75 66.9483 165.928C63.768 165.093 60.9663 163.954 58.6189 162.891C58.3918 157.045 58.7704 147.706 62.405 137.077C65.661 127.511 68.0841 120.754 74.5205 115.819C84.5914 108.151 97.9184 110.353 111.624 105.19Z" fill="#6FB9B8"/>
<path d="M130.176 309.8C123.664 306.46 116.849 303.195 109.731 299.93C95.5708 293.477 81.8652 287.934 68.8411 283.227C66.8724 281.481 64.0707 279.052 60.5118 276.394C60.1332 276.091 53.394 271.232 48.3963 268.802C46.3519 267.815 29.466 259.995 15.0789 268.802C3.94782 275.635 1.37329 288.162 0.691794 291.579C0.313186 293.325 -2.48851 308.433 6.74951 321.188C13.1858 330.071 22.4239 333.488 28.7087 335.614C61.269 346.47 104.506 350.95 119.575 352.317C121.619 344.193 123.588 336.145 125.632 328.021C127.147 321.948 128.661 315.874 130.176 309.8Z" fill="#F16A70"/>
<path d="M42.3384 268.802C46.4273 270.017 52.1822 271.156 58.9971 271.08C64.0704 271.08 68.3866 270.397 71.8698 269.561C72.0969 271.535 73.6113 284.898 68.0837 287.783C62.8589 290.44 51.955 283.531 42.3384 268.802Z" fill="#BE5458"/>
<path d="M255.873 262.729C248.755 265.386 242.849 266.98 238.457 268.043C234.293 269.03 231.339 269.486 227.856 269.562C224.373 269.637 221.496 269.182 219.527 268.802C219.375 270.245 218.845 277.23 223.313 280.95C229.749 286.34 240.956 279.811 243 278.672C251.254 273.813 254.662 265.993 255.873 262.729Z" fill="#7C3025"/>
<path d="M155.921 316.633C160.086 313.976 165.765 310.559 172.58 306.763C177.426 304.03 185.755 299.475 196.811 294.616C213.166 287.403 213.924 289.073 221.799 283.987C228.084 279.963 229.825 277.457 237.7 273.357C243.076 270.548 244.818 270.321 249.058 267.284C252.769 264.626 253.98 262.956 257.388 261.969C259.129 261.438 261.174 261.21 266.474 261.969C273.062 262.88 276.772 263.412 280.104 265.006C289.039 269.334 295.4 281.709 293.734 293.097C292.295 302.815 285.405 308.889 280.861 312.837C276.394 316.785 272.456 318.683 267.232 321.188C248.225 330.299 238.76 334.854 233.914 337.132C212.485 347.23 212.939 349.356 200.597 353.835C188.405 358.314 177.804 359.985 171.065 360.668C171.444 355.353 171.52 345.711 167.279 334.854C163.947 326.275 159.253 320.201 155.921 316.633Z" fill="#F16A70"/>
<path d="M127.904 306.004C129.191 305.245 130.175 306.308 136.233 308.282C139.868 309.421 141.609 309.724 142.291 311.319C142.594 312.078 142.518 312.837 142.291 314.355C141.912 316.937 141.231 318.076 140.776 319.67C139.413 324.225 141.685 325.896 140.019 329.54C140.019 329.616 139.186 331.286 137.747 332.577C132.75 337.056 123.815 333.488 123.36 333.336C123.285 332.197 123.209 330.375 123.36 328.021C123.739 320.961 125.405 319.822 126.389 312.078C126.919 308.13 126.692 306.687 127.904 306.004Z" fill="#D66C71"/>
<path d="M102.916 365.983C105.036 365.679 108.217 365.147 112.003 364.464C124.8 362.187 125.178 361.731 131.69 360.668C147.365 358.163 155.164 356.872 162.736 357.631C165.311 357.859 167.506 358.239 168.794 356.872C172.201 353.152 164.856 340.852 160.464 334.855C155.997 328.705 151.151 324.605 147.592 321.948C144.639 323.238 140.474 325.061 135.476 327.262C119.953 334.019 116.622 335.234 112.76 336.373C108.974 337.436 103.37 338.802 96.1011 339.41C98.3727 348.217 100.644 357.1 102.916 365.983Z" fill="#ED9B7C"/>
<path d="M166.522 365.223C167.355 365.451 169.324 365.906 171.822 365.223C176.896 363.857 179.092 359.149 179.394 358.39C178.713 353 177.426 348.9 176.366 346.243C173.867 339.713 171.974 339.106 168.036 330.299C166.295 326.427 165.765 324.529 163.493 320.429C160.843 315.646 158.874 313.292 155.921 312.078C154.406 311.47 153.119 311.318 152.135 311.318C146.986 314.127 143.502 317.088 142.291 318.911C141.004 320.885 140.777 322.707 140.777 322.707C140.701 323.314 140.701 323.846 140.777 324.225C141.382 323.542 142.518 322.631 143.805 322.707C144.563 322.707 146.001 323.162 148.349 327.262C150.09 330.299 150.923 332.804 151.378 334.095C153.271 339.41 156.224 343.206 159.707 347.761C161.524 350.115 163.493 352.316 165.007 356.112C165.462 357.175 166.825 360.592 165.765 361.427C165.386 361.731 164.856 361.579 164.25 361.427C160.616 360.364 158.344 358.238 158.192 358.39C158.041 358.542 160.843 363.857 166.522 365.223Z" fill="#D66C71"/>
<path d="M96.8586 338.65C98.373 340.245 100.342 342.75 101.402 346.243C102.235 348.976 102.083 350.95 102.159 354.594C102.235 357.479 102.386 361.655 102.916 366.742C92.7696 367.273 84.5159 367.425 78.6854 367.501C57.1048 367.653 54.7574 366.286 48.3968 369.019C45.4436 370.31 42.0362 372.284 37.7958 371.297C34.2369 370.462 31.1323 367.653 29.4664 364.464C27.1948 359.985 29.6178 358.163 27.952 348.52C27.3462 344.8 26.7404 343.889 27.1948 341.687C27.8763 338.271 30.4508 334.627 34.0097 333.336C36.1299 332.577 36.5842 333.336 40.0674 332.577C43.172 331.893 44.3835 330.906 46.1251 330.299C50.0627 328.932 53.5458 330.527 58.9978 332.577C58.9978 332.577 67.63 335.765 75.6565 337.891C80.427 339.106 87.4691 340.093 96.8586 338.65Z" fill="#40244C"/>
<path d="M141.155 181.112C141.836 176.329 139.868 175.342 141.155 170.483C142.291 166.155 144.184 165.396 144.941 160.613C145.244 158.715 145.622 155.906 144.184 153.021C143.957 152.489 141.836 148.465 138.883 148.465C137.445 148.465 136.006 149.452 133.583 153.021C131.235 156.513 127.904 161.6 126.768 169.724C126.011 175.342 126.692 179.518 127.525 184.149C128.585 190.45 129.267 194.322 131.311 194.778C134.416 195.461 140.171 188.476 141.155 181.112Z" fill="#CE6C52"/>
<path d="M143.427 180.353C142.594 178.227 144.487 176.86 145.699 171.242C146.531 167.598 146.456 164.713 146.456 162.89C146.38 156.513 143.275 154.159 144.941 150.743C145.244 150.136 146.001 148.769 147.592 148.086C150.318 146.871 153.422 148.845 154.028 149.224C160.843 153.476 159.48 166.459 159.328 168.964C159.026 173.292 158.42 181.34 153.271 183.389C149.712 184.832 144.563 183.162 143.427 180.353Z" fill="#CE6C52"/>
<path d="M133.962 1.55606C130.706 1.63198 128.359 3.53003 127.147 4.59295C118.06 12.1852 113.593 16.0572 110.488 20.5366C103.219 31.2416 100.796 42.0226 99.8873 47.8686C98.2214 59.0292 100.796 60.6994 99.8873 83.552C99.5087 93.9534 98.8272 97.0662 98.3728 98.7365C95.7226 109.517 90.8764 113.845 86.2574 122.272C79.8211 134.116 78.761 145.125 77.928 153.4C77.0951 161.676 76.8679 176.481 83.2285 194.398C84.8944 190.906 86.9389 185.971 88.529 179.973C88.9076 178.607 89.9677 174.431 90.8007 167.826C91.5579 161.904 92.1637 153.628 91.5579 143.531C93.5267 154.843 93.4509 163.878 93.0723 170.103C92.5423 178.607 91.1036 184.301 94.5868 188.325C97.9185 192.197 103.976 192.424 108.217 192.121C106.021 190.83 102.916 188.476 101.402 184.529C100.19 181.492 100.493 178.834 100.644 176.936C101.553 165.624 99.6601 166.079 100.644 157.197C101.25 152.034 102.765 143.91 107.459 134.42C97.7671 158.867 99.7358 169.496 103.673 174.659C105.036 176.481 109.05 180.732 110.488 187.565C111.397 191.893 111.018 195.689 110.488 198.195C114.123 186.806 115.334 177.392 115.789 170.863C115.865 169.42 116.092 165.852 115.789 151.123C115.562 141.632 115.486 136.849 115.032 126.828C114.502 114.984 114.729 114.3 114.274 60.7754C114.047 31.3176 113.896 25.016 119.575 19.0182C127.677 10.439 141.307 9.52789 150.621 11.4259C166.749 14.7665 175.609 28.1288 177.88 31.9249C185.907 45.1354 184.317 67.4565 180.909 111.643C179.546 128.953 178.183 139.962 184.695 151.123C187.724 156.361 191.889 160.461 193.782 168.585C195.826 177.24 194.085 185.136 192.268 190.602C190.223 196.676 188.254 202.75 186.21 208.824C188.936 207.837 194.463 205.331 199.082 199.713C202.869 195.082 204.232 190.45 204.837 188.173C207.336 179.29 205.519 171.546 204.383 167.826C206.2 170.635 209.683 176.709 210.441 185.288C211.198 193.867 208.775 200.472 207.412 203.509C209.835 199.03 213.091 192.045 214.984 183.01C217.104 172.761 216.498 164.637 215.741 154.919C215.363 150.136 214.681 141.329 211.955 130.624C207.715 113.921 203.853 113.01 199.082 97.9772C194.312 83.0206 197.719 82.565 192.268 56.9792C187.876 36.1766 183.938 28.6603 182.424 25.8512C174.17 10.7426 164.932 5.42809 161.979 3.83372C159.026 2.23936 153.801 -0.341997 146.835 0.037614C142.897 0.265381 139.717 1.40421 137.748 2.31528C136.991 1.93567 135.628 1.48014 133.962 1.55606Z" fill="#16171C"/>
<path d="M192.267 91.9035C192.646 72.3156 197.038 68.975 194.539 52.4239C193.479 45.591 192.343 38.4543 187.724 30.4065C177.502 12.7167 159.934 7.09841 156.678 6.11142C151.529 4.59298 143.957 2.31531 134.719 4.59298C121.998 7.70579 114.804 17.3479 111.245 22.0551C109.125 24.8642 104.961 30.4824 102.916 38.758C101.78 43.3892 101.856 48.2482 102.159 57.7385C102.613 73.6822 102.84 81.654 102.916 82.0336C105.263 99.4198 110.413 102.305 108.217 113.162C107.384 117.413 106.248 118.78 105.188 125.309C104.809 127.815 104.052 133.053 104.431 142.012C104.809 150.971 105.112 158.867 108.217 168.585C109.958 173.975 113.214 181.947 119.575 190.602C117.379 186.351 115.183 181.036 113.517 174.659C110.261 161.828 110.943 150.743 112.003 143.531C111.775 152.338 113.441 158.867 115.032 163.27C117.833 171.014 121.165 174.051 122.604 181.492C123.891 188.021 122.907 193.639 121.846 197.435C125.86 185.364 125.784 175.873 124.875 169.344C123.815 161.828 121.771 158.108 121.089 149.604C120.408 140.418 121.922 132.75 123.361 127.587C122.149 134.496 123.058 139.507 124.118 142.771C125.557 147.251 128.056 151.047 127.147 156.437C126.844 158.411 126.163 160.006 125.633 160.993C127.071 158.487 128.889 155.147 130.933 151.123C132.22 148.541 134.189 144.821 136.234 140.494C140.095 132.294 141.988 128.118 142.291 126.068C143.427 117.261 138.202 109.517 133.962 103.292C128.586 95.3959 126.996 97.0662 124.875 91.9035C121.998 85.0705 124.724 81.8058 123.361 66.8492C122.831 60.8513 122.377 61.6865 121.846 55.4608C120.862 44.4521 120.332 38.5302 122.604 32.6842C123.588 30.1028 126.768 23.2698 136.991 17.8794V17.4997C138.505 13.7036 136.991 9.90753 138.505 6.11142C138.505 9.60384 137.899 13.7796 138.96 17.3479C141.458 17.1201 145.093 17.1201 149.106 18.259C156.83 20.3848 161.449 25.1679 163.493 27.3696C170.838 35.1896 172.428 44.2244 173.337 49.3871C174.019 53.4109 175.154 59.8643 173.337 67.6084C171.444 75.808 168.112 77.9338 165.008 88.8666C164.251 91.6757 163.72 94.4848 162.736 100.255C159.026 121.589 157.208 132.294 159.707 138.216C161.827 143.379 162.433 146.188 163.493 151.882C163.645 152.793 164.023 154.767 163.493 157.197C163.115 158.867 162.509 160.158 161.979 160.993C163.342 159.55 165.083 157.272 165.765 154.16C166.598 150.439 165.235 148.01 164.251 142.771C163.418 138.064 163.418 134.572 163.493 130.624C163.569 126.828 163.948 121.361 165.765 114.68C172.201 127.739 172.277 137.229 171.065 143.531C169.93 149.604 167.507 153.552 162.736 170.863C162.13 172.988 161.146 176.633 160.464 181.492C159.632 187.11 159.632 191.817 159.707 195.158C160.994 185.212 163.645 177.923 165.765 173.14C167.507 169.268 168.642 167.446 171.065 162.511C174.852 154.615 177.275 147.858 178.638 143.531C178.562 147.63 177.956 154.16 175.609 161.752C173.11 169.648 171.065 171.014 169.551 178.455C168.491 183.617 167.128 191.21 171.065 198.195C172.731 201.08 174.852 203.054 176.366 204.268C176.139 202.294 175.76 199.409 175.609 195.917C175.382 190.982 175.23 188.552 175.609 186.806C176.972 180.429 182.651 180.353 187.724 173.14C190.374 169.344 191.283 165.32 193.025 157.197C194.766 148.997 195.145 142.392 195.296 138.216C196.054 115.591 191.965 110.428 192.267 91.9035Z" fill="#1E202D"/>
<path d="M113.971 191.741C116.546 188.856 118.439 185.668 119.196 181.871C120.105 177.392 118.59 176.557 119.953 169.724C121.089 164.03 122.603 162.511 125.254 153.021C127.071 146.492 126.465 146.947 127.525 144.67C130.554 138.14 133.886 138.292 137.369 131.763C137.748 131.004 138.505 129.637 139.641 129.485C140.928 129.333 142.67 130.7 142.67 132.522C142.67 133.889 141.761 135.103 140.398 135.559C140.625 135.559 141.837 135.483 142.67 136.318C143.427 137.077 143.427 138.216 143.427 138.596C143.427 139.886 142.745 140.418 141.912 142.392C141.534 143.303 141.307 144.138 141.155 144.67C142.064 145.277 143.351 146.264 143.427 147.706C143.503 148.997 142.518 149.984 141.912 150.743C141.307 151.427 140.019 153.704 137.369 158.336C136.46 159.854 134.567 163.195 133.583 167.446C132.674 171.242 133.204 172.685 132.826 175.798C132.22 181.264 129.721 185.212 127.147 189.084C125.027 192.349 122.755 194.778 120.256 197.056" fill="#F4A992"/>
<path d="M149.485 181.112C149.485 178.91 149.863 178.607 150.242 175.038C150.772 170.255 151.075 167.446 150.242 164.409C149.03 159.854 146.153 157.576 144.184 151.502C143.957 150.895 143.427 149.149 144.184 148.465C145.017 147.706 146.834 148.997 147.213 148.465C147.743 147.782 144.714 145.58 143.427 141.632C142.594 139.051 142.518 135.938 143.427 135.559C144.033 135.331 144.941 136.242 145.698 137.077C145.471 136.394 145.168 135.331 144.941 134.04C144.714 132.674 144.638 131.99 144.941 131.763C145.244 131.535 146.153 131.687 148.727 134.04C149.712 135.862 151.226 138.52 153.271 141.632C158.268 149.377 159.631 149.68 161.6 153.78C163.872 158.563 164.175 162.587 164.629 169.724C165.083 176.86 164.175 180.201 163.114 182.63C162.887 183.086 162.206 184.604 160.843 186.427C159.253 188.476 156.527 192.121 154.028 191.741C151.075 191.21 149.56 185.212 149.485 181.112Z" fill="#F4A992"/>
<path d="M157.965 72.6953C155.694 74.2897 153.498 74.8211 152.362 75.1248C150.469 75.5803 148.046 76.1118 145.471 75.1248C144.108 74.5933 143.199 73.8341 142.669 73.3027C143.578 73.3027 144.941 73.2267 146.531 72.999C151.075 72.3157 154.406 70.7213 156.829 69.5825C158.571 68.7473 160.843 67.5326 163.341 65.7104C162.811 67.153 161.297 70.3417 157.965 72.6953Z" fill="#E05C62"/>
<path d="M156.678 57.7383C158.117 58.1938 159.48 58.8012 160.767 59.4086C161.449 59.7123 162.054 60.0919 162.736 60.3956C163.417 60.6992 164.099 61.0029 164.78 61.6103C165.159 61.914 165.462 62.2936 165.613 62.7491C165.841 63.2047 165.916 63.7361 165.916 64.1157C165.916 64.9509 165.841 65.7101 165.613 66.3934C165.31 67.8359 164.856 69.2785 164.175 70.645C164.25 69.1266 164.326 67.6841 164.402 66.2416C164.402 65.5583 164.478 64.799 164.402 64.1157C164.402 63.8121 164.326 63.5084 164.25 63.3565C164.099 63.1288 163.947 62.901 163.72 62.7491C163.266 62.3695 162.66 62.0658 161.979 61.6862C161.373 61.3066 160.691 60.927 160.086 60.4715C159.026 59.5604 157.814 58.7253 156.678 57.7383Z" fill="#CE6C52"/>
<path d="M143.048 72.9229C144.26 71.5563 145.774 70.4934 147.289 69.5824C148.803 68.6713 150.469 67.9121 152.211 67.3047C153.952 66.6973 155.694 66.3177 157.511 66.09C159.328 65.8622 161.146 65.7863 162.963 66.09C161.297 66.7732 159.556 67.3047 157.965 67.8362C156.3 68.3676 154.709 68.8991 153.044 69.5064C151.453 70.0379 149.788 70.6453 148.197 71.2526C146.456 71.7841 144.79 72.3915 143.048 72.9229Z" fill="#E05C62"/>
<path d="M141.913 67.2285C141.913 68.2155 141.837 69.2025 141.761 70.2654C141.686 71.2524 141.61 72.2394 141.383 73.2264C141.307 73.6819 141.231 74.1374 141.383 74.517C141.534 74.8967 141.761 75.2004 142.14 75.504C142.897 75.9596 143.882 76.1873 144.866 76.4151C143.882 76.5669 142.821 76.5669 141.837 76.0355C141.307 75.8077 140.928 75.3522 140.701 74.8207C140.474 74.2134 140.55 73.6819 140.626 73.1505C140.853 72.1635 140.928 71.1765 141.156 70.1895C141.383 69.1266 141.61 68.1396 141.913 67.2285Z" fill="#CE6C52"/>
<path d="M224.903 282.165L74.6719 284.215C70.1286 284.29 66.4183 280.646 66.3426 276.091L65.131 188.477C65.0553 183.921 68.6899 180.201 73.2332 180.125L223.465 178.075C228.008 177.999 231.718 181.644 231.794 186.199L233.006 273.813C233.081 278.369 229.447 282.089 224.903 282.165Z" fill="#8A8E99"/>
<path d="M220.587 279.507L78.9121 281.481C74.3688 281.557 70.6585 277.913 70.5827 273.357L69.5226 191.134C69.4469 186.578 73.0816 182.858 77.6249 182.782L219.3 180.808C223.843 180.732 227.553 184.377 227.629 188.932L228.765 271.156C228.765 275.787 225.13 279.507 220.587 279.507Z" fill="#ABAFBA"/>
<path d="M121.089 51.4867C123.436 48.9898 126.465 47.0226 129.645 45.7363C131.236 45.0553 132.977 44.6014 134.643 44.2987C136.385 43.9961 138.126 43.8447 139.868 43.8447H140.171L140.322 44.0717C141.382 45.2823 142.215 46.7956 142.518 48.3089C142.897 49.8978 142.745 51.5624 142.215 53C142.442 51.4867 142.215 49.9735 141.685 48.6115C141.458 47.9305 141.079 47.2496 140.701 46.6443C140.322 46.039 139.868 45.5093 139.338 44.9797L139.868 45.2067C138.202 45.2823 136.536 45.5093 134.87 45.812C133.204 46.1146 131.614 46.5686 130.024 47.0983C128.434 47.6279 126.919 48.2332 125.405 48.9898C124.042 49.7465 122.528 50.5788 121.089 51.4867Z" fill="#0F0F11"/>
<path d="M153.168 50C151.773 49.1309 150.543 47.9458 149.641 46.5236C149.23 45.8126 148.82 45.1015 148.574 44.3114C148.328 43.5213 148.082 42.7312 148 41.8622V41.5461L148.246 41.3091C149.641 40.124 151.199 39.0179 152.758 38.1488C154.398 37.2797 156.121 36.4896 157.926 36.0156C161.535 34.9885 165.391 34.6724 169 35.3835C167.195 35.4625 165.391 35.6995 163.586 36.0156C161.781 36.3316 160.059 36.8056 158.418 37.3587C156.777 37.9908 155.137 38.6228 153.578 39.4919C152.02 40.361 150.543 41.3091 149.148 42.3362L149.395 41.7832C149.477 43.2843 149.805 44.7855 150.461 46.1286C151.117 47.5507 152.02 48.8939 153.168 50Z" fill="#0F0F11"/>
<path d="M121.467 51C121.848 51.7671 122.152 52.4489 122.532 53.216C122.912 53.8979 123.368 54.5798 123.825 55.1764C124.281 55.773 124.737 56.3696 125.27 56.881C125.802 57.3924 126.334 57.9038 126.943 58.4152L126.486 58.2447C127.855 58.0743 129.148 57.8186 130.517 57.4777C131.81 57.1367 133.179 56.7106 134.471 56.2844C135.764 55.773 137.057 55.2616 138.274 54.665C139.566 54.0684 140.783 53.3865 142 52.6194C141.011 53.7274 139.871 54.665 138.654 55.5173C137.437 56.3696 136.22 57.1367 134.852 57.7334C133.559 58.33 132.19 58.8414 130.745 59.1823C129.376 59.5232 127.931 59.7789 126.486 59.8642H126.182L125.954 59.6937C124.737 58.5857 123.749 57.3072 122.912 55.8582C122.532 55.0911 122.152 54.3241 121.924 53.557C121.771 52.7046 121.619 51.8523 121.467 51Z" fill="#2F323F"/>
<path d="M153 50C154.352 49.5135 155.703 49.027 156.975 48.5405L160.951 47.0811C162.303 46.5946 163.575 46.1081 164.847 45.6216C166.119 45.1351 167.471 44.5676 168.743 44.0811L168.345 44.6486C168.584 43.1081 168.663 41.4865 168.663 39.8649C168.663 39.0541 168.663 38.2432 168.584 37.4324C168.504 36.6216 168.425 35.8108 168.345 35C168.663 35.7297 168.902 36.5405 169.14 37.3514C169.379 38.1622 169.538 38.973 169.618 39.7838C169.856 41.4865 169.856 43.1081 169.697 44.8108V45.2162L169.299 45.3784C168.027 46.027 166.676 46.5946 165.404 47.0811C164.052 47.5676 162.7 48.0541 161.349 48.4595C159.997 48.8649 158.566 49.1892 157.214 49.4324C155.783 49.7568 154.352 49.9189 153 50Z" fill="#2F323F"/>
<path d="M141.912 49.0073C142.594 47.7166 143.805 46.7296 145.168 46.1982C146.531 45.6667 148.046 45.5149 149.484 45.9704C148.046 46.1223 146.758 46.4259 145.471 46.8815C144.184 47.4129 143.048 48.0962 141.912 49.0073Z" fill="#0F0F11"/>
</svg>
