<svg width="48" height="48" viewBox="0 0 48 48" fill="none" xmlns="http://www.w3.org/2000/svg">
<path fill-rule="evenodd" clip-rule="evenodd" d="M44 30.7918C44 36.3154 39.5228 40.7931 34 40.7931H24V39.5879C24.8347 39.8856 25.7338 40.0477 26.6708 40.0477C31.0616 40.0477 34.6211 36.4877 34.6211 32.0963C34.6211 27.705 31.0616 24.145 26.6708 24.145C25.7338 24.145 24.8347 24.3071 24 24.6048V17.0013C24 11.4777 28.4772 7 34 7L44 7L44 30.7918ZM26.6708 15.9452C26.6708 11.5538 30.2303 7.99391 34.6211 7.99391C39.012 7.99392 42.5714 11.5538 42.5714 15.9452C42.5714 20.3366 39.012 23.8966 34.6211 23.8966C30.2303 23.8966 26.6708 20.3366 26.6708 15.9452Z" fill="#FFDCD0"/>
<path d="M24 30.7918C24 36.3154 19.5228 40.7931 14 40.7931H4L4 37.2242C5.58046 38.5961 7.64358 39.4265 9.90062 39.4265C14.8746 39.4265 18.9068 35.3937 18.9068 30.4191C18.9068 25.4445 14.8746 21.4118 9.90062 21.4118C7.64358 21.4118 5.58046 22.2421 4 23.6141L4 17.0013C4 11.4777 8.47715 7 14 7L24 7L24 8.49919C23.1305 8.17257 22.1886 7.99392 21.205 7.99392C16.8141 7.99391 13.2547 11.5538 13.2547 15.9452C13.2547 20.3366 16.8141 23.8966 21.205 23.8966C22.1886 23.8966 23.1305 23.7179 24 23.3913L24 30.7918Z" fill="#FFDCD0"/>
</svg>
