<svg width="73" height="72" viewBox="0 0 73 72" fill="none" xmlns="http://www.w3.org/2000/svg">
<path d="M28.0299 42C28.0299 42 26.3633 42 26.3633 40.3333C26.3633 38.6667 28.0299 33.6667 36.3633 33.6667C44.6966 33.6667 46.3633 38.6667 46.3633 40.3333C46.3633 42 44.6966 42 44.6966 42H28.0299ZM36.3633 32C37.6894 32 38.9611 31.4732 39.8988 30.5355C40.8365 29.5979 41.3633 28.3261 41.3633 27C41.3633 25.6739 40.8365 24.4021 39.8988 23.4645C38.9611 22.5268 37.6894 22 36.3633 22C35.0372 22 33.7654 22.5268 32.8277 23.4645C31.8901 24.4021 31.3633 25.6739 31.3633 27C31.3633 28.3261 31.8901 29.5979 32.8277 30.5355C33.7654 31.4732 35.0372 32 36.3633 32V32Z" fill="#F16A70"/>
<path d="M50.3633 8H22.3633C21.3024 8 20.285 8.42143 19.5349 9.17157C18.7847 9.92172 18.3633 10.9391 18.3633 12V60C18.3633 61.0609 18.7847 62.0783 19.5349 62.8284C20.285 63.5786 21.3024 64 22.3633 64H50.3633C51.4241 64 52.4416 63.5786 53.1917 62.8284C53.9419 62.0783 54.3633 61.0609 54.3633 60V12C54.3633 10.9391 53.9419 9.92172 53.1917 9.17157C52.4416 8.42143 51.4241 8 50.3633 8V8ZM38.3633 60H34.3633V56H38.3633V60ZM22.3633 52V12H50.3633V52H22.3633Z" fill="#F16A70"/>
</svg>
