<svg width="72" height="72" viewBox="0 0 72 72" fill="none" xmlns="http://www.w3.org/2000/svg">
<path d="M30.0732 16.1427C27.5266 16.1427 25.1704 16.9417 23.2324 18.3017C23.1066 16.3535 22.6612 14.6637 21.8418 13.1677C24.4299 11.7354 27.347 11.0033 30.3048 11.0436C33.2625 11.0839 36.1586 11.8952 38.7068 13.3975C41.2549 14.8997 43.367 17.0409 44.8343 19.6094C46.3016 22.1778 47.0733 25.0847 47.0732 28.0427H54.7266C58.011 28.0393 60.6766 30.7049 60.6766 33.9893V52.6893C60.677 53.4713 60.5234 54.2456 60.2243 54.9681C59.9253 55.6906 59.4868 56.3471 58.9339 56.9C58.381 57.4529 57.7245 57.8914 57.002 58.1905C56.2795 58.4895 55.5051 58.6432 54.7232 58.6427H36.0232C34.4452 58.6427 32.9318 58.0158 31.8159 56.9C30.7001 55.7842 30.0732 54.2708 30.0732 52.6927V45.0427C27.7081 45.0457 25.3686 44.5535 23.2052 43.5977C23.2494 42.4417 23.2732 41.2279 23.2732 39.9427V39.7319C23.2732 39.1641 23.2732 38.5113 23.263 37.8041C25.1942 39.1505 27.5402 39.9427 30.0732 39.9427V33.9927C30.0732 30.7083 32.7388 28.0427 36.0232 28.0427H41.9732C41.9732 24.8866 40.7195 21.8598 38.4878 19.6281C36.2561 17.3965 33.2293 16.1427 30.0732 16.1427ZM46.2946 33.1427C45.4706 35.7535 44.0296 38.1273 42.0937 40.0632C40.1578 41.9991 37.784 43.4401 35.1732 44.2641V52.6927C35.1732 53.1619 35.554 53.5427 36.0232 53.5427H54.7232C54.9486 53.5427 55.1648 53.4532 55.3242 53.2938C55.4836 53.1344 55.5732 52.9182 55.5732 52.6927V33.9927C55.5732 33.7673 55.4836 33.5511 55.3242 33.3917C55.1648 33.2323 54.9486 33.1427 54.7232 33.1427H46.2946ZM40.8274 33.1427H36.0232C35.7978 33.1427 35.5816 33.2323 35.4222 33.3917C35.2627 33.5511 35.1732 33.7673 35.1732 33.9927V38.7969C37.6512 37.6173 39.6478 35.6208 40.8274 33.1427V33.1427Z" fill="#F16A70"/>
<path d="M20.772 8.42486C21.0548 8.67128 21.2481 9.0043 21.3219 9.37205C21.3957 9.7398 21.3458 10.1216 21.18 10.4581C21.1512 10.5575 21.1363 10.6605 21.1358 10.7641C21.1358 10.9783 21.1902 11.3863 21.7036 11.8963C21.9518 12.1445 22.1422 12.3213 22.3496 12.5151C22.5196 12.6715 22.6998 12.8347 22.9276 13.0591C23.3696 13.4807 23.8354 13.9771 24.2536 14.5993C25.1206 15.9015 25.6 17.5301 25.6 19.8999C25.6 22.8001 24.5256 25.2719 22.8494 26.7883L23.067 27.0399C24.019 28.2095 24.5732 29.7259 24.92 31.2219C25.6 34.1799 25.6 37.7363 25.6 40.2149V40.2999C25.6 49.7757 24.3114 55.1511 22.8936 58.2247C22.1796 59.7717 21.4214 60.7577 20.7652 61.3765C20.4984 61.6324 20.2042 61.8582 19.888 62.0497C19.7432 62.1368 19.592 62.213 19.4358 62.2775C19.4358 62.2775 19.0516 62.3999 18.8 62.3999C18.5484 62.3999 18.1642 62.2775 18.1642 62.2775C18.0063 62.2168 17.8548 62.1404 17.712 62.0497C17.3958 61.8582 17.1016 61.6324 16.8348 61.3765C16.1786 60.7543 15.4204 59.7717 14.7064 58.2247C13.2886 55.1511 12 49.7757 12 40.2999V40.2149C12 37.7329 12 34.1799 12.68 31.2219C13.0268 29.7259 13.581 28.2095 14.533 27.0399C14.601 26.9549 14.6758 26.8699 14.7506 26.7883C13.0744 25.2719 12 22.8001 12 19.8999C12 18.7915 12.2958 17.4689 12.7038 16.2483C13.1118 15.0243 13.683 13.7595 14.3426 12.7395C15.128 11.4135 16.233 10.3017 17.0898 9.55366C17.5595 9.14055 18.0498 8.75133 18.5586 8.38746L18.7082 8.28546C19.02 8.07764 19.3917 7.97864 19.7655 8.00385C20.1393 8.02906 20.4944 8.17707 20.7754 8.42486H20.772Z" fill="#F16A70"/>
</svg>
